<svg width="61" height="64" viewBox="0 0 61 64" fill="none" xmlns="http://www.w3.org/2000/svg">
<path d="M0.11162 0.65136C0.167429 0.802841 5.85206 15.0901 12.7326 32.3992L25.242 63.8759L25.4413 63.6526C25.9675 63.0626 60.2985 21.1973 60.3304 21.1017C60.3543 21.0299 58.2654 18.9889 54.6458 15.5446C51.4965 12.5548 48.706 9.89984 48.4429 9.64471L47.9645 9.19025L24.2454 4.82912C11.2018 2.4293 0.406614 0.452038 0.263103 0.42812L0 0.380283L0.11162 0.65136ZM26.3183 8.62418C35.6784 10.3383 43.3642 11.7735 43.4041 11.7974C43.436 11.8293 40.4621 14.3566 36.7946 17.4182C30.8867 22.3374 30.1054 22.9593 29.9938 22.8637C29.922 22.7999 25.2181 18.9012 19.5414 14.1972C13.8647 9.49322 9.16078 5.59451 9.097 5.53073C8.99335 5.42708 8.99335 5.41114 9.13686 5.451C9.22456 5.47492 16.9582 6.90205 26.3183 8.62418ZM17.7316 17.0594C27.7694 25.391 28.6224 26.1166 28.5826 26.3079C28.5268 26.6189 25.2021 54.2447 25.2021 54.4281C25.1941 54.5556 25.1862 54.5556 25.1304 54.46C25.0745 54.3802 7.12771 9.24607 6.64137 7.98636C6.60947 7.90663 6.63339 7.89866 6.72109 7.9465C6.78488 7.98636 11.744 12.0844 17.7316 17.0594ZM54.4863 20.0732C54.3268 20.121 34.5782 23.6769 34.5622 23.6609C34.5542 23.653 37.3926 21.2691 40.8847 18.367L47.2151 13.089L50.8826 16.5731C52.8997 18.4866 54.5182 20.0652 54.4863 20.0732ZM53.6093 24.0676C53.402 24.3227 47.6855 31.283 40.9086 39.5428C34.1396 47.7947 28.5826 54.5238 28.5746 54.4839C28.5427 54.3723 31.7797 27.6792 31.8355 27.6234C31.8913 27.5756 53.4977 23.629 53.8086 23.6131C53.984 23.6051 53.9681 23.645 53.6093 24.0676Z" fill="#59C869"/>
</svg>
