<svg width="30" height="30" viewBox="0 0 30 30" fill="none" xmlns="http://www.w3.org/2000/svg">
<path fill-rule="evenodd" clip-rule="evenodd" d="M6.69231 5.88462C7.32956 5.88462 7.84616 6.40121 7.84616 7.03847V9.8077C7.84616 10.4449 7.32956 10.9615 6.69231 10.9615C6.05506 10.9615 5.53846 10.4449 5.53846 9.8077V7.03847C5.53846 6.40121 6.05506 5.88462 6.69231 5.88462Z" fill="url(#paint0_linear_65_952)"/>
<path fill-rule="evenodd" clip-rule="evenodd" d="M2.58795 2.58795C4.46791 0.708002 7.27082 0 10.8462 0H19.1539C22.7292 0 25.5321 0.708002 27.4121 2.58795C29.292 4.46791 30 7.27082 30 10.8462V15C30 15.6373 29.4834 16.1539 28.8462 16.1539C28.2089 16.1539 27.6923 15.6373 27.6923 15V10.8462C27.6923 7.49842 27.0157 5.45517 25.7803 4.21974C24.5448 2.98431 22.5016 2.30769 19.1539 2.30769H10.8462C7.49842 2.30769 5.45517 2.98431 4.21974 4.21974C2.98431 5.45517 2.30769 7.49842 2.30769 10.8462V19.1539C2.30769 22.5016 2.98431 24.5448 4.21974 25.7803C5.45517 27.0157 7.49842 27.6923 10.8462 27.6923H15C15.6373 27.6923 16.1539 28.2089 16.1539 28.8462C16.1539 29.4834 15.6373 30 15 30H10.8462C7.27082 30 4.46791 29.292 2.58795 27.4121C0.708002 25.5321 0 22.7292 0 19.1539V10.8462C0 7.27082 0.708002 4.46791 2.58795 2.58795Z" fill="url(#paint1_linear_65_952)"/>
<path fill-rule="evenodd" clip-rule="evenodd" d="M12.2308 5.88462C12.868 5.88462 13.3846 6.40121 13.3846 7.03847V9.8077C13.3846 10.4449 12.868 10.9615 12.2308 10.9615C11.5935 10.9615 11.0769 10.4449 11.0769 9.8077V7.03847C11.0769 6.40121 11.5935 5.88462 12.2308 5.88462Z" fill="url(#paint2_linear_65_952)"/>
<path fill-rule="evenodd" clip-rule="evenodd" d="M6.69231 19.3846C7.32956 19.3846 7.84616 19.9012 7.84616 20.5385V23.3077C7.84616 23.945 7.32956 24.4616 6.69231 24.4616C6.05506 24.4616 5.53846 23.945 5.53846 23.3077V20.5385C5.53846 19.9012 6.05506 19.3846 6.69231 19.3846Z" fill="url(#paint3_linear_65_952)"/>
<path fill-rule="evenodd" clip-rule="evenodd" d="M12.2308 19.3846C12.868 19.3846 13.3846 19.9012 13.3846 20.5385V23.3077C13.3846 23.945 12.868 24.4616 12.2308 24.4616C11.5935 24.4616 11.0769 23.945 11.0769 23.3077V20.5385C11.0769 19.9012 11.5935 19.3846 12.2308 19.3846Z" fill="url(#paint4_linear_65_952)"/>
<path fill-rule="evenodd" clip-rule="evenodd" d="M16.6154 8.42308C16.6154 7.78583 17.132 7.26923 17.7692 7.26923H23.3077C23.945 7.26923 24.4615 7.78583 24.4615 8.42308C24.4615 9.06033 23.945 9.57693 23.3077 9.57693H17.7692C17.132 9.57693 16.6154 9.06033 16.6154 8.42308Z" fill="url(#paint5_linear_65_952)"/>
<path fill-rule="evenodd" clip-rule="evenodd" d="M0 15C0 14.3628 0.516595 13.8462 1.15385 13.8462H28.8462C29.4834 13.8462 30 14.3628 30 15C30 15.6373 29.4834 16.1539 28.8462 16.1539H1.15385C0.516595 16.1539 0 15.6373 0 15Z" fill="url(#paint6_linear_65_952)"/>
<path fill-rule="evenodd" clip-rule="evenodd" d="M28.8462 18.3462C29.4834 18.3462 30 18.8628 30 19.5V22.2619C30.007 22.6609 29.8065 23.0525 29.4398 23.2725C29.1985 23.4173 28.9256 23.4636 28.6678 23.4231H26.0769C25.4397 23.4231 24.9231 22.9065 24.9231 22.2692C24.9231 21.7639 25.2479 21.3345 25.7001 21.1783C25.3023 21.0349 24.8515 20.9446 24.3462 20.9446C23.0965 20.9446 22.0191 21.6125 21.4434 22.6202C21.1272 23.1735 20.4224 23.3657 19.8691 23.0495C19.3158 22.7334 19.1236 22.0285 19.4397 21.4752C20.4147 19.769 22.2451 18.6369 24.3462 18.6369C25.7246 18.6369 26.8424 19.0672 27.6923 19.5951V19.5C27.6923 18.8628 28.2089 18.3462 28.8462 18.3462Z" fill="url(#paint7_linear_65_952)"/>
<path d="M19.1908 26.2654C19.1937 25.6306 19.7092 25.1169 20.3447 25.1169H23.1139C23.7511 25.1169 24.2677 25.6335 24.2677 26.2707C24.2677 26.8408 23.8543 27.3144 23.3109 27.4078C23.6334 27.5424 23.9799 27.623 24.3462 27.623C25.5814 27.623 26.6613 26.9554 27.2377 25.9569C27.5563 25.405 28.262 25.2159 28.8139 25.5345C29.3658 25.8532 29.5549 26.5588 29.2363 27.1107C28.2619 28.7984 26.4341 29.9307 24.3462 29.9307C23.1977 29.9307 22.2326 29.5268 21.4828 29.0369C21.3919 29.5834 20.9169 30 20.3447 30C19.7074 30 19.1908 29.4834 19.1908 28.8461L19.1908 26.2654Z" fill="url(#paint8_linear_65_952)"/>
<defs>
<linearGradient id="paint0_linear_65_952" x1="15.0001" y1="0" x2="15.0001" y2="30" gradientUnits="userSpaceOnUse">
<stop stop-color="#FFDA41"/>
<stop offset="1" stop-color="#FBAE33"/>
</linearGradient>
<linearGradient id="paint1_linear_65_952" x1="15.0001" y1="0" x2="15.0001" y2="30" gradientUnits="userSpaceOnUse">
<stop stop-color="#FFDA41"/>
<stop offset="1" stop-color="#FBAE33"/>
</linearGradient>
<linearGradient id="paint2_linear_65_952" x1="15.0001" y1="0" x2="15.0001" y2="30" gradientUnits="userSpaceOnUse">
<stop stop-color="#FFDA41"/>
<stop offset="1" stop-color="#FBAE33"/>
</linearGradient>
<linearGradient id="paint3_linear_65_952" x1="15.0001" y1="0" x2="15.0001" y2="30" gradientUnits="userSpaceOnUse">
<stop stop-color="#FFDA41"/>
<stop offset="1" stop-color="#FBAE33"/>
</linearGradient>
<linearGradient id="paint4_linear_65_952" x1="15.0001" y1="0" x2="15.0001" y2="30" gradientUnits="userSpaceOnUse">
<stop stop-color="#FFDA41"/>
<stop offset="1" stop-color="#FBAE33"/>
</linearGradient>
<linearGradient id="paint5_linear_65_952" x1="15.0001" y1="0" x2="15.0001" y2="30" gradientUnits="userSpaceOnUse">
<stop stop-color="#FFDA41"/>
<stop offset="1" stop-color="#FBAE33"/>
</linearGradient>
<linearGradient id="paint6_linear_65_952" x1="15.0001" y1="0" x2="15.0001" y2="30" gradientUnits="userSpaceOnUse">
<stop stop-color="#FFDA41"/>
<stop offset="1" stop-color="#FBAE33"/>
</linearGradient>
<linearGradient id="paint7_linear_65_952" x1="15.0001" y1="0" x2="15.0001" y2="30" gradientUnits="userSpaceOnUse">
<stop stop-color="#FFDA41"/>
<stop offset="1" stop-color="#FBAE33"/>
</linearGradient>
<linearGradient id="paint8_linear_65_952" x1="15.0001" y1="0" x2="15.0001" y2="30" gradientUnits="userSpaceOnUse">
<stop stop-color="#FFDA41"/>
<stop offset="1" stop-color="#FBAE33"/>
</linearGradient>
</defs>
</svg>
