<svg width="32" height="29" viewBox="0 0 32 29" fill="none" xmlns="http://www.w3.org/2000/svg">
<path fill-rule="evenodd" clip-rule="evenodd" d="M5.64764 14.2802C5.64764 13.5631 6.22888 12.9819 6.94587 12.9819H25.121C25.838 12.9819 26.4192 13.5631 26.4192 14.2802C26.4192 14.9972 25.838 15.5784 25.121 15.5784H6.94587C6.22888 15.5784 5.64764 14.9972 5.64764 14.2802ZM12.1388 19.473C12.1388 18.756 11.5575 18.1748 10.8405 18.1748C10.1236 18.1748 9.54231 18.756 9.54231 19.473C9.54231 20.1193 9.52307 21.1035 9.33273 21.9455C9.23704 22.3687 9.02637 22.8686 8.8114 23.3001C8.70814 23.5073 8.61199 23.6828 8.5424 23.8052C8.50775 23.8661 8.48007 23.9132 8.46187 23.9439L8.44211 23.9767L8.43868 23.9823L9.54231 24.6659C8.43868 23.9823 8.43876 23.9822 8.43868 23.9823L8.43797 23.9835C8.06135 24.5928 8.24953 25.3923 8.85866 25.7696C9.46817 26.1471 10.2684 25.9591 10.6459 25.3496L9.59412 24.698C10.6459 25.3496 10.6459 25.3497 10.6459 25.3496L10.6468 25.3483L10.6479 25.3465L10.651 25.3414L10.6605 25.3257L10.6923 25.273C10.7187 25.2286 10.7553 25.1663 10.7995 25.0886C10.8875 24.9338 11.0069 24.7158 11.1354 24.458C11.3839 23.9591 11.7016 23.2419 11.8652 22.518C12.1255 21.3668 12.1388 20.125 12.1388 19.473ZM19.9281 19.473C19.9281 18.756 20.5093 18.1748 21.2263 18.1748C21.9433 18.1748 22.5245 18.756 22.5245 19.473C22.5245 20.1193 22.5438 21.1035 22.7341 21.9455C22.8299 22.3687 23.0405 22.8686 23.2554 23.3001C23.3586 23.5073 23.4548 23.6828 23.5244 23.8052C23.5591 23.8661 23.5867 23.9132 23.605 23.9439L23.6248 23.9767L23.6282 23.9823L22.5245 24.6659C23.6282 23.9823 23.6282 23.9822 23.6282 23.9823L23.6289 23.9835C24.0056 24.5928 23.8173 25.3923 23.2082 25.7696C22.5987 26.1471 21.7984 25.9591 21.4209 25.3496L22.4727 24.698C21.4209 25.3496 21.4209 25.3497 21.4209 25.3496L21.4201 25.3483L21.419 25.3465L21.4159 25.3414L21.4062 25.3257L21.3746 25.273C21.3481 25.2286 21.3115 25.1663 21.2673 25.0886C21.1793 24.9338 21.06 24.7158 20.9315 24.458C20.683 23.9591 20.3652 23.2419 20.2016 22.518C19.9413 21.3668 19.9281 20.125 19.9281 19.473ZM17.3316 19.473C17.3316 18.756 16.7504 18.1748 16.0334 18.1748C15.3164 18.1748 14.7352 18.756 14.7352 19.473V27.2624C14.7352 27.9794 15.3164 28.5606 16.0334 28.5606C16.7504 28.5606 17.3316 27.9794 17.3316 27.2624V19.473Z" fill="url(#paint0_linear_94_4616)"/>
<path fill-rule="evenodd" clip-rule="evenodd" d="M3.05116 12.9822C3.05116 18.3599 3.81616 20.4218 5.09537 21.4878C5.41749 21.7563 5.6476 22.1334 5.6476 22.5527V22.6805C5.6476 23.6759 4.63381 24.363 3.82396 23.7841C1.21944 21.9223 0.454712 18.6203 0.454712 12.9822C0.454712 2.29136 3.20435 0 16.0334 0C28.8624 0 31.6121 2.29136 31.6121 12.9822C31.6121 18.6203 30.8473 21.9223 28.2428 23.7841C27.4329 24.363 26.4192 23.6759 26.4192 22.6805V22.5527C26.4192 22.1334 26.6492 21.7563 26.9714 21.4878C28.2506 20.4218 29.0156 18.3599 29.0156 12.9822C29.0156 7.60462 28.2506 5.5427 26.9714 4.47669C26.2935 3.91177 25.2262 3.41503 23.407 3.0781C21.5811 2.73994 19.1921 2.59645 16.0334 2.59645C12.8746 2.59645 10.4857 2.73994 8.65979 3.0781C6.84053 3.41503 5.77327 3.91177 5.09537 4.47669C3.81616 5.5427 3.05116 7.60462 3.05116 12.9822Z" fill="url(#paint1_linear_94_4616)"/>
<defs>
<linearGradient id="paint0_linear_94_4616" x1="18.8437" y1="31.2509" x2="16.5414" y2="11.6803" gradientUnits="userSpaceOnUse">
<stop stop-color="#38A3A3"/>
<stop offset="1" stop-color="#46C5CE"/>
</linearGradient>
<linearGradient id="paint1_linear_94_4616" x1="20.2488" y1="28.1398" x2="16.61" y2="-1.98254" gradientUnits="userSpaceOnUse">
<stop stop-color="#38A3A3"/>
<stop offset="1" stop-color="#46C5CE"/>
</linearGradient>
</defs>
</svg>
