<svg width="32" height="32" viewBox="0 0 32 32" fill="none" xmlns="http://www.w3.org/2000/svg">
<path fill-rule="evenodd" clip-rule="evenodd" d="M3.25157 3.2517C5.19444 1.30883 8.08509 0.583496 11.75 0.583496H20.25C23.915 0.583496 26.8056 1.30883 28.7485 3.2517C30.6914 5.19456 31.4167 8.08521 31.4167 11.7502V20.2502C31.4167 23.9151 30.6914 26.8058 28.7485 28.7486C26.8056 30.6915 23.915 31.4168 20.25 31.4168H11.75C8.08509 31.4168 5.19444 30.6915 3.25157 28.7486C1.30871 26.8058 0.583374 23.9151 0.583374 20.2502V11.7502C0.583374 8.08521 1.30871 5.19456 3.25157 3.2517ZM5.01934 5.01946C3.77471 6.2641 3.08337 8.33178 3.08337 11.7502V20.2502C3.08337 23.6685 3.77471 25.7362 5.01934 26.9809C6.26398 28.2255 8.33166 28.9168 11.75 28.9168H20.25C23.6684 28.9168 25.7361 28.2255 26.9807 26.9809C28.2254 25.7362 28.9167 23.6685 28.9167 20.2502V11.7502C28.9167 8.33178 28.2254 6.2641 26.9807 5.01946C25.7361 3.77483 23.6684 3.0835 20.25 3.0835H11.75C8.33166 3.0835 6.26398 3.77483 5.01934 5.01946Z" fill="url(#paint0_linear_64_950)"/>
<path fill-rule="evenodd" clip-rule="evenodd" d="M16.875 9.62516C16.875 7.37647 18.7097 5.54183 20.9584 5.54183C23.2071 5.54183 25.0417 7.37647 25.0417 9.62516V22.3752C25.0417 24.6239 23.2071 26.4585 20.9584 26.4585C18.6915 26.4585 16.875 24.6198 16.875 22.3752V9.62516ZM20.9584 8.04183C20.0904 8.04183 19.375 8.75718 19.375 9.62516V22.3752C19.375 23.2472 20.0803 23.9585 20.9584 23.9585C21.8264 23.9585 22.5417 23.2431 22.5417 22.3752V9.62516C22.5417 8.75718 21.8264 8.04183 20.9584 8.04183Z" fill="url(#paint1_linear_64_950)"/>
<path fill-rule="evenodd" clip-rule="evenodd" d="M6.95837 17.4168C6.95837 15.1681 8.79302 13.3335 11.0417 13.3335C13.2904 13.3335 15.125 15.1681 15.125 17.4168V22.3752C15.125 24.6239 13.2904 26.4585 11.0417 26.4585C8.77478 26.4585 6.95837 24.6198 6.95837 22.3752V17.4168ZM11.0417 15.8335C10.1737 15.8335 9.45837 16.5489 9.45837 17.4168V22.3752C9.45837 23.2472 10.1636 23.9585 11.0417 23.9585C11.9097 23.9585 12.625 23.2431 12.625 22.3752V17.4168C12.625 16.5489 11.9097 15.8335 11.0417 15.8335Z" fill="url(#paint2_linear_64_950)"/>
<defs>
<linearGradient id="paint0_linear_64_950" x1="20.1716" y1="36.7415" x2="14.1599" y2="-1.58583" gradientUnits="userSpaceOnUse">
<stop stop-color="#37ADB1"/>
<stop offset="1" stop-color="#4CC3CB"/>
</linearGradient>
<linearGradient id="paint1_linear_64_950" x1="20.1716" y1="36.7415" x2="14.1599" y2="-1.58583" gradientUnits="userSpaceOnUse">
<stop stop-color="#37ADB1"/>
<stop offset="1" stop-color="#4CC3CB"/>
</linearGradient>
<linearGradient id="paint2_linear_64_950" x1="20.1716" y1="36.7415" x2="14.1599" y2="-1.58583" gradientUnits="userSpaceOnUse">
<stop stop-color="#37ADB1"/>
<stop offset="1" stop-color="#4CC3CB"/>
</linearGradient>
</defs>
</svg>
