<svg width="31" height="31" viewBox="0 0 31 31" fill="none" xmlns="http://www.w3.org/2000/svg">
<path d="M11.625 0C9.15771 0 7.15967 1.79118 6.66016 4.11719C3.64795 4.65706 1.29167 7.16976 1.29167 10.3333C1.29167 10.6512 1.32699 10.9338 1.3724 11.2214C0.539877 12.4474 0 13.8905 0 15.5C0 17.821 1.15544 19.7736 2.78516 21.1914C2.66911 21.6506 2.58333 22.1097 2.58333 22.6042C2.58333 25.798 5.20199 28.4167 8.39583 28.4167H8.47656C9.22835 29.8748 10.5301 31 12.2708 31C13.5322 31 14.6776 30.4702 15.5 29.6276C16.3224 30.4702 17.4678 31 18.7292 31C20.4699 31 21.7716 29.8748 22.5234 28.4167H22.6042C25.6366 28.4167 28.124 26.0553 28.3763 23.0885H28.4167C28.4167 23.0078 28.3813 22.9271 28.3763 22.8464C28.3813 22.7656 28.4167 22.6849 28.4167 22.6042C28.4167 22.1248 28.2451 21.7161 28.1341 21.2721C29.8092 19.8493 31 17.8613 31 15.5C31 13.8905 30.4601 12.4474 29.6276 11.2214C29.673 10.9338 29.7083 10.6512 29.7083 10.3333C29.7083 7.16976 27.352 4.65706 24.3398 4.11719C23.8403 1.79118 21.8423 0 19.375 0C17.826 0 16.4486 0.721517 15.5 1.81641C14.5514 0.721517 13.174 0 11.625 0ZM11.625 2.58333C13.068 2.58333 14.2083 3.72363 14.2083 5.16667V7.75C14.2083 9.90446 12.4878 11.625 10.3333 11.625V14.2083C11.7965 14.2083 13.1235 13.7038 14.2083 12.8763V26.4792C14.2083 27.564 13.3556 28.4167 12.2708 28.4167C11.3071 28.4167 10.5352 27.7507 10.3737 26.8424L10.1315 25.5911L8.88021 25.793C8.65316 25.8283 8.51188 25.8333 8.39583 25.8333C6.59961 25.8333 5.16667 24.4004 5.16667 22.6042C5.16667 22.2056 5.23226 21.8322 5.36849 21.474C5.37858 21.4437 5.39876 21.4235 5.40885 21.3932C5.80745 20.3993 6.67529 19.6727 7.75 19.4557L7.22526 16.9128C5.87809 17.1852 4.70752 17.9017 3.875 18.931C3.06266 18.0228 2.58333 16.8219 2.58333 15.5C2.58333 14.2891 2.99707 13.2093 3.71354 12.3112L4.11719 11.8268L3.99609 11.181C3.92546 10.8783 3.875 10.6108 3.875 10.3333C3.875 8.17887 5.59554 6.45833 7.75 6.45833H9.04167V5.16667C9.04167 3.72363 10.182 2.58333 11.625 2.58333ZM19.375 2.58333C20.818 2.58333 21.9583 3.72363 21.9583 5.16667V6.45833H23.25C25.4045 6.45833 27.125 8.17887 27.125 10.3333C27.125 10.6108 27.0745 10.8783 27.0039 11.181L26.8828 11.8268L27.2865 12.3112C28.0029 13.2093 28.4167 14.2891 28.4167 15.5C28.4167 17.049 27.7557 18.4315 26.681 19.375C25.798 18.5929 24.6729 18.0833 23.4115 18.0833C22.1904 18.0833 21.0905 18.5173 20.2227 19.2539L21.8776 21.2318C22.2964 20.8786 22.811 20.6667 23.4115 20.6667C24.6577 20.6667 25.6517 21.6001 25.793 22.806C25.687 24.5063 24.3298 25.8333 22.6042 25.8333C22.4881 25.8333 22.3468 25.8283 22.1198 25.793L20.8685 25.5911L20.6263 26.8424C20.4648 27.7507 19.6929 28.4167 18.7292 28.4167C17.6444 28.4167 16.7917 27.564 16.7917 26.4792V12.8763C17.8765 13.7038 19.2035 14.2083 20.6667 14.2083V11.625C18.5122 11.625 16.7917 9.90446 16.7917 7.75V5.16667C16.7917 3.72363 17.932 2.58333 19.375 2.58333Z" fill="url(#paint0_linear_94_4625)"/>
<defs>
<linearGradient id="paint0_linear_94_4625" x1="27" y1="37" x2="6" y2="0.999999" gradientUnits="userSpaceOnUse">
<stop stop-color="#FF6341"/>
<stop offset="1" stop-color="#FB9333"/>
</linearGradient>
</defs>
</svg>
