<svg width="34" height="34" viewBox="0 0 34 34" fill="none" xmlns="http://www.w3.org/2000/svg">
<path fill-rule="evenodd" clip-rule="evenodd" d="M6.06612 6.06612C7.76523 4.367 10.2767 3.75 13.4 3.75H20.6C23.7233 3.75 26.2348 4.367 27.9339 6.06612C29.633 7.76523 30.25 10.2767 30.25 13.4C30.25 14.0904 29.6904 14.65 29 14.65C28.3096 14.65 27.75 14.0904 27.75 13.4C27.75 10.5233 27.167 8.83477 26.1661 7.83388C25.1652 6.833 23.4767 6.25 20.6 6.25H13.4C10.5233 6.25 8.83477 6.833 7.83388 7.83388C6.833 8.83477 6.25 10.5233 6.25 13.4V20.6C6.25 23.4767 6.833 25.1652 7.83388 26.1661C8.83477 27.167 10.5233 27.75 13.4 27.75C14.0904 27.75 14.65 28.3096 14.65 29C14.65 29.6904 14.0904 30.25 13.4 30.25C10.2767 30.25 7.76523 29.633 6.06612 27.9339C4.367 26.2348 3.75 23.7233 3.75 20.6V13.4C3.75 10.2767 4.367 7.76523 6.06612 6.06612Z" fill="url(#paint0_linear_64_943)"/>
<path fill-rule="evenodd" clip-rule="evenodd" d="M9.83487 9.83487C11.0277 8.642 12.7517 8.25 14.75 8.25H19.25C21.4535 8.25 23.3255 8.72285 24.5079 10.2277C24.9344 10.7706 24.8401 11.5564 24.2973 11.9829C23.7544 12.4094 22.9686 12.3151 22.5421 11.7723C22.0745 11.1772 21.1865 10.75 19.25 10.75H14.75C12.9983 10.75 12.0973 11.108 11.6026 11.6026C11.108 12.0973 10.75 12.9983 10.75 14.75V19.25C10.75 21.1868 11.1774 22.0799 11.7641 22.5475C12.304 22.9778 12.3928 23.7643 11.9625 24.3041C11.5322 24.844 10.7457 24.9328 10.2059 24.5025C8.72257 23.3201 8.25 21.4532 8.25 19.25V14.75C8.25 12.7517 8.642 11.0277 9.83487 9.83487Z" fill="url(#paint1_linear_64_943)"/>
<path fill-rule="evenodd" clip-rule="evenodd" d="M11.015 0.75C11.7054 0.75 12.265 1.30964 12.265 2V5C12.265 5.69036 11.7054 6.25 11.015 6.25C10.3246 6.25 9.765 5.69036 9.765 5V2C9.765 1.30964 10.3246 0.75 11.015 0.75Z" fill="url(#paint2_linear_64_943)"/>
<path fill-rule="evenodd" clip-rule="evenodd" d="M17 0.75C17.6904 0.75 18.25 1.30964 18.25 2V5C18.25 5.69036 17.6904 6.25 17 6.25C16.3096 6.25 15.75 5.69036 15.75 5V2C15.75 1.30964 16.3096 0.75 17 0.75Z" fill="url(#paint3_linear_64_943)"/>
<path fill-rule="evenodd" clip-rule="evenodd" d="M23 0.75C23.6904 0.75 24.25 1.30964 24.25 2V5C24.25 5.69036 23.6904 6.25 23 6.25C22.3096 6.25 21.75 5.69036 21.75 5V2C21.75 1.30964 22.3096 0.75 23 0.75Z" fill="url(#paint4_linear_64_943)"/>
<path fill-rule="evenodd" clip-rule="evenodd" d="M27.75 11C27.75 10.3096 28.3096 9.75 29 9.75H32C32.6904 9.75 33.25 10.3096 33.25 11C33.25 11.6904 32.6904 12.25 32 12.25H29C28.3096 12.25 27.75 11.6904 27.75 11Z" fill="url(#paint5_linear_64_943)"/>
<path fill-rule="evenodd" clip-rule="evenodd" d="M11.015 27.75C11.7054 27.75 12.265 28.3096 12.265 29V32C12.265 32.6904 11.7054 33.25 11.015 33.25C10.3246 33.25 9.765 32.6904 9.765 32V29C9.765 28.3096 10.3246 27.75 11.015 27.75Z" fill="url(#paint6_linear_64_943)"/>
<path fill-rule="evenodd" clip-rule="evenodd" d="M0.75 11C0.75 10.3096 1.30964 9.75 2 9.75H5C5.69036 9.75 6.25 10.3096 6.25 11C6.25 11.6904 5.69036 12.25 5 12.25H2C1.30964 12.25 0.75 11.6904 0.75 11Z" fill="url(#paint7_linear_64_943)"/>
<path fill-rule="evenodd" clip-rule="evenodd" d="M0.75 17C0.75 16.3096 1.30964 15.75 2 15.75H5C5.69036 15.75 6.25 16.3096 6.25 17C6.25 17.6904 5.69036 18.25 5 18.25H2C1.30964 18.25 0.75 17.6904 0.75 17Z" fill="url(#paint8_linear_64_943)"/>
<path fill-rule="evenodd" clip-rule="evenodd" d="M0.75 23C0.75 22.3096 1.30964 21.75 2 21.75H5C5.69036 21.75 6.25 22.3096 6.25 23C6.25 23.6904 5.69036 24.25 5 24.25H2C1.30964 24.25 0.75 23.6904 0.75 23Z" fill="url(#paint9_linear_64_943)"/>
<path fill-rule="evenodd" clip-rule="evenodd" d="M24.065 23.365C23.4382 23.365 22.93 23.8732 22.93 24.5C22.93 25.1268 23.4382 25.635 24.065 25.635C24.6918 25.635 25.2 25.1268 25.2 24.5C25.2 23.8732 24.6918 23.365 24.065 23.365ZM20.43 24.5C20.43 22.4924 22.0574 20.865 24.065 20.865C26.0726 20.865 27.7 22.4924 27.7 24.5C27.7 26.5076 26.0726 28.135 24.065 28.135C22.0574 28.135 20.43 26.5076 20.43 24.5Z" fill="url(#paint10_linear_64_943)"/>
<path fill-rule="evenodd" clip-rule="evenodd" d="M21.4953 18.2481C21.4916 18.2486 21.4869 18.2496 21.4794 18.2541L21.4691 18.2602L20.1041 19.0552L20.0878 19.0645C19.9766 19.127 19.9312 19.2827 19.9997 19.4002L20.0021 19.4042C20.4955 20.2574 20.6968 21.3214 20.161 22.2527C19.6246 23.1851 18.6025 23.545 17.615 23.545C17.4804 23.545 17.365 23.6604 17.365 23.795V25.19C17.365 25.3525 17.4879 25.4421 17.5923 25.4402L17.615 25.44C18.6025 25.44 19.6246 25.7999 20.161 26.7323C20.6968 27.6636 20.4955 28.7276 20.0021 29.5808L19.9997 29.5848C19.9382 29.6904 19.9629 29.8474 20.1047 29.9302L21.4619 30.7207C21.5006 30.7415 21.5553 30.7286 21.5809 30.6856L21.5831 30.6819L21.6684 30.5397C22.1616 29.6923 22.9794 28.9913 24.05 28.9913C25.1206 28.9913 25.9384 29.6923 26.4316 30.5397L26.5191 30.6856C26.5356 30.7134 26.5588 30.7287 26.5811 30.7347C26.5919 30.7376 26.6 30.7375 26.6048 30.7369C26.6084 30.7364 26.6131 30.7354 26.6206 30.7309L26.6309 30.7248L27.9959 29.9298L28.0122 29.9205C28.1234 29.858 28.1688 29.7023 28.1003 29.5848L28.0979 29.5808C27.6045 28.7276 27.4032 27.6636 27.939 26.7323C28.4754 25.7999 29.4975 25.44 30.485 25.44C30.6196 25.44 30.735 25.3246 30.735 25.19V23.795C30.735 23.6604 30.6196 23.545 30.485 23.545C29.4975 23.545 28.4754 23.1851 27.939 22.2527C27.4032 21.3214 27.6045 20.2574 28.0979 19.4042L28.1003 19.4002C28.1618 19.2946 28.1371 19.1377 27.9954 19.0549L26.6381 18.2643C26.5994 18.2435 26.5447 18.2564 26.5191 18.2994L26.5169 18.3031L26.4316 18.4453C25.9384 19.2927 25.1206 19.9937 24.05 19.9937C22.9794 19.9937 22.1616 19.2927 21.6684 18.4453L21.5809 18.2994C21.5644 18.2716 21.5412 18.2563 21.5189 18.2503C21.5081 18.2474 21.5 18.2475 21.4953 18.2481ZM23.7278 17.0184C23.0171 15.8271 21.456 15.3631 20.2065 16.1024L18.8528 16.8908C17.5321 17.6405 17.0712 19.3382 17.8388 20.6573C17.9321 20.819 17.9641 20.9321 17.974 20.994C17.9156 21.0162 17.8017 21.045 17.615 21.045C16.0996 21.045 14.865 22.2796 14.865 23.795V25.19C14.865 26.7028 16.0844 27.96 17.6233 27.94C17.8051 27.9409 17.9164 27.9691 17.974 27.991C17.9641 28.0529 17.9321 28.1661 17.8387 28.3278C17.0625 29.6618 17.548 31.333 18.8452 32.0897L20.2109 32.8852L20.2198 32.8903C21.4403 33.5877 23.0031 33.1813 23.7278 31.9666L23.7291 31.9644L23.8169 31.8181L23.8271 31.8008C23.9198 31.6404 24.0012 31.556 24.05 31.5157C24.0988 31.556 24.1802 31.6404 24.2729 31.8008L24.2831 31.8181L24.3709 31.9644L24.3721 31.9663C25.0827 33.1579 26.6439 33.622 27.8934 32.8826L29.2473 32.0941C30.5679 31.3445 31.0287 29.647 30.2614 28.328C30.1679 28.1661 30.1359 28.0529 30.126 27.991C30.1845 27.9688 30.2983 27.94 30.485 27.94C32.0004 27.94 33.235 26.7054 33.235 25.19V23.795C33.235 22.2796 32.0004 21.045 30.485 21.045C30.2983 21.045 30.1845 21.0162 30.126 20.994C30.136 20.9321 30.1679 20.8189 30.2613 20.6571C31.0375 19.3231 30.552 17.652 29.2548 16.8953L27.8891 16.0998L27.8802 16.0947C26.6596 15.3973 25.0967 15.8037 24.3721 17.0186L24.3709 17.0206L24.2831 17.1669L24.2729 17.1842C24.1802 17.3446 24.0988 17.4291 24.05 17.4693C24.0012 17.4291 23.9198 17.3446 23.8271 17.1842L23.8169 17.1669L23.7278 17.0184Z" fill="url(#paint11_linear_64_943)"/>
<defs>
<linearGradient id="paint0_linear_64_943" x1="17" y1="0.75" x2="17" y2="33.25" gradientUnits="userSpaceOnUse">
<stop stop-color="#FFDA41"/>
<stop offset="1" stop-color="#FBAE33"/>
</linearGradient>
<linearGradient id="paint1_linear_64_943" x1="17" y1="0.75" x2="17" y2="33.25" gradientUnits="userSpaceOnUse">
<stop stop-color="#FFDA41"/>
<stop offset="1" stop-color="#FBAE33"/>
</linearGradient>
<linearGradient id="paint2_linear_64_943" x1="17" y1="0.75" x2="17" y2="33.25" gradientUnits="userSpaceOnUse">
<stop stop-color="#FFDA41"/>
<stop offset="1" stop-color="#FBAE33"/>
</linearGradient>
<linearGradient id="paint3_linear_64_943" x1="17" y1="0.75" x2="17" y2="33.25" gradientUnits="userSpaceOnUse">
<stop stop-color="#FFDA41"/>
<stop offset="1" stop-color="#FBAE33"/>
</linearGradient>
<linearGradient id="paint4_linear_64_943" x1="17" y1="0.75" x2="17" y2="33.25" gradientUnits="userSpaceOnUse">
<stop stop-color="#FFDA41"/>
<stop offset="1" stop-color="#FBAE33"/>
</linearGradient>
<linearGradient id="paint5_linear_64_943" x1="17" y1="0.75" x2="17" y2="33.25" gradientUnits="userSpaceOnUse">
<stop stop-color="#FFDA41"/>
<stop offset="1" stop-color="#FBAE33"/>
</linearGradient>
<linearGradient id="paint6_linear_64_943" x1="17" y1="0.75" x2="17" y2="33.25" gradientUnits="userSpaceOnUse">
<stop stop-color="#FFDA41"/>
<stop offset="1" stop-color="#FBAE33"/>
</linearGradient>
<linearGradient id="paint7_linear_64_943" x1="17" y1="0.75" x2="17" y2="33.25" gradientUnits="userSpaceOnUse">
<stop stop-color="#FFDA41"/>
<stop offset="1" stop-color="#FBAE33"/>
</linearGradient>
<linearGradient id="paint8_linear_64_943" x1="17" y1="0.75" x2="17" y2="33.25" gradientUnits="userSpaceOnUse">
<stop stop-color="#FFDA41"/>
<stop offset="1" stop-color="#FBAE33"/>
</linearGradient>
<linearGradient id="paint9_linear_64_943" x1="17" y1="0.75" x2="17" y2="33.25" gradientUnits="userSpaceOnUse">
<stop stop-color="#FFDA41"/>
<stop offset="1" stop-color="#FBAE33"/>
</linearGradient>
<linearGradient id="paint10_linear_64_943" x1="17" y1="0.75" x2="17" y2="33.25" gradientUnits="userSpaceOnUse">
<stop stop-color="#FFDA41"/>
<stop offset="1" stop-color="#FBAE33"/>
</linearGradient>
<linearGradient id="paint11_linear_64_943" x1="17" y1="0.75" x2="17" y2="33.25" gradientUnits="userSpaceOnUse">
<stop stop-color="#FFDA41"/>
<stop offset="1" stop-color="#FBAE33"/>
</linearGradient>
</defs>
</svg>
