<svg width="101" height="101" viewBox="0 0 101 101" fill="none" xmlns="http://www.w3.org/2000/svg">
<path d="M84.919 24.7197C88.5683 26.7555 90.8203 30.5436 90.8203 34.6462V67.1197C90.8203 71.224 88.5664 75.0134 84.9147 77.0486L55.629 93.3703C52.0293 95.3766 47.6113 95.3766 44.0116 93.3703L14.7259 77.0486C11.0742 75.0134 8.82031 71.224 8.82031 67.1197V34.6462C8.82031 30.5436 11.0723 26.7555 14.7216 24.7197L44.0073 8.38205C47.6092 6.37265 52.0314 6.37265 55.6333 8.38205L84.919 24.7197Z" fill="url(#paint0_linear_4061_550602)"/>
<path fill-rule="evenodd" clip-rule="evenodd" d="M88.8679 67.1197V34.6462C88.8679 31.2274 86.9912 28.0706 83.9502 26.3741L54.6645 10.0365C51.6629 8.36197 47.9777 8.36197 44.9762 10.0365L15.6904 26.3741C12.6494 28.0706 10.7727 31.2274 10.7727 34.6462V67.1197C10.7727 70.5399 12.6509 73.6978 15.694 75.3938L44.9797 91.7155C47.9795 93.3874 51.6611 93.3874 54.6609 91.7155L83.9466 75.3938C86.9897 73.6978 88.8679 70.5399 88.8679 67.1197ZM90.8203 34.6462C90.8203 30.5436 88.5683 26.7555 84.919 24.7197L55.6333 8.38205C52.0314 6.37265 47.6092 6.37265 44.0073 8.38205L14.7216 24.7197C11.0723 26.7555 8.82031 30.5436 8.82031 34.6462V67.1197C8.82031 71.224 11.0742 75.0134 14.7259 77.0486L44.0116 93.3703C47.6113 95.3765 52.0293 95.3765 55.629 93.3703L84.9147 77.0486C88.5664 75.0134 90.8203 71.224 90.8203 67.1197V34.6462Z" fill="white"/>
<mask id="mask0_4061_550602" style="mask-type:alpha" maskUnits="userSpaceOnUse" x="13" y="11" width="74" height="79">
<path d="M80.1861 27.0171C83.8333 29.0534 86.0838 32.8404 86.0838 36.9416V64.0219C86.0838 68.1248 83.8314 71.9131 80.1818 73.9488L55.7644 87.5686C52.1628 89.5775 47.7413 89.5775 44.1397 87.5686L19.7223 73.9488C16.0726 71.9131 13.8203 68.1248 13.8203 64.022V36.9416C13.8203 32.8404 16.0708 29.0534 19.718 27.0171L44.1354 13.3841C47.7392 11.372 52.1649 11.372 55.7686 13.3841L80.1861 27.0171Z" fill="#FEE881"/>
</mask>
<g mask="url(#mask0_4061_550602)">
<path d="M80.1861 27.0171C83.8333 29.0534 86.0838 32.8404 86.0838 36.9416V64.0219C86.0838 68.1248 83.8315 71.9131 80.1818 73.9488L55.7643 87.5686C52.1628 89.5775 47.7413 89.5775 44.1397 87.5686L19.7223 73.9488C16.0726 71.9131 13.8203 68.1248 13.8203 64.0219V36.9416C13.8203 32.8404 16.0708 29.0534 19.718 27.0171L44.1354 13.3841C47.7392 11.372 52.1649 11.372 55.7686 13.3841L80.1861 27.0171Z" fill="#0171D3"/>
<path opacity="0.7" d="M84.2574 51.542C84.2574 69.7345 69.0002 84.4824 50.1795 84.4824C31.3588 84.4824 16.1016 69.7345 16.1016 51.542C16.1016 33.3495 31.3588 18.6016 50.1795 18.6016C69.0002 18.6016 84.2574 33.3495 84.2574 51.542Z" fill="url(#paint1_radial_4061_550602)"/>
<path d="M78.6015 39.8463C77.518 39.5414 76.5516 39.3985 75.6536 39.3985C74.3846 39.3985 73.2425 39.6843 72.2566 40.256C71.505 38.5791 69.9822 37.3881 67.698 36.7021C67.083 36.5211 66.4681 36.4258 65.8824 36.4258C63.4127 36.4258 61.685 38.1122 61.0407 39.8368C60.5917 41.1802 60.7186 42.5618 61.4019 43.7814C58.7175 44.4864 56.8042 45.8585 55.5352 47.4592C55.0277 46.9542 54.5298 46.4206 53.9929 45.8013C54.1979 45.0391 54.1979 44.2197 53.866 43.143C53.827 43.0001 53.7587 42.8572 53.6806 42.7333C53.1242 41.8091 52.3921 41.3327 51.494 41.3327C51.2305 41.3327 50.9962 41.3899 50.7912 41.4566C50.5862 41.3899 50.3519 41.3327 50.0884 41.3327C49.1903 41.3327 48.4582 41.7996 47.9018 42.7333C47.8237 42.8667 47.7651 43.0001 47.7163 43.143C47.3845 44.2197 47.3845 45.0391 47.5894 45.8013C46.9061 46.6017 46.2814 47.2591 45.6079 47.8879C44.3584 46.1062 42.3378 44.5531 39.4191 43.7814C40.1024 42.5713 40.2391 41.1802 39.7608 39.7892C39.1848 38.2456 37.5742 36.4353 34.9386 36.4353C34.3529 36.4353 33.738 36.5306 33.123 36.7116C30.8388 37.3976 29.316 38.5791 28.5644 40.2656C27.5687 39.6939 26.4364 39.3985 25.1577 39.3985C24.2596 39.3985 23.2932 39.5414 22.2097 39.8463C18.4223 40.9039 17.5437 43.8195 17.9439 45.9919C18.1294 46.9923 19.2617 48.8026 21.6728 49.5744C21.6045 49.6697 21.5459 49.7745 21.4776 49.8698C21.3605 50.0413 21.2433 50.2128 21.1457 50.3938C21.0774 50.5081 21.0188 50.6225 20.9602 50.7368C20.8626 50.9083 20.7748 51.0893 20.6967 51.2608C20.6381 51.3847 20.5893 51.5086 20.5405 51.6324C20.4722 51.7944 20.4038 51.9659 20.3453 52.1374C20.2965 52.2708 20.2574 52.3947 20.2184 52.5281C20.1696 52.69 20.1305 52.852 20.0915 53.014C20.0622 53.1474 20.0329 53.2712 20.0036 53.4046C19.9743 53.5761 19.9548 53.7476 19.9255 53.9191C19.9158 54.0335 19.8962 54.1573 19.8865 54.2717C19.8767 54.4718 19.8767 54.6623 19.8767 54.8624C19.8767 54.9482 19.8767 55.0434 19.8767 55.1292C19.8865 55.4055 19.9158 55.6723 19.9646 55.9391C19.9646 55.9581 19.9646 55.9677 19.9646 55.9867C20.0134 56.2726 20.0915 56.5584 20.1793 56.8347C20.2086 56.93 20.2574 57.0253 20.2867 57.1301C20.3257 57.2253 20.355 57.3206 20.3941 57.4159C20.3941 57.4254 20.3941 57.435 20.3941 57.4445C20.3941 57.454 20.4038 57.4731 20.4136 57.4826C20.4429 57.5398 20.4624 57.6065 20.4917 57.6636C20.5307 57.7494 20.5795 57.8351 20.6283 57.9304C20.6869 58.0448 20.7357 58.1496 20.8041 58.2544C20.8431 58.3211 20.8821 58.3973 20.9309 58.464C20.97 58.5212 20.9993 58.5783 21.0383 58.626C21.1262 58.7689 21.2238 58.9023 21.3214 59.0357C21.3507 59.0738 21.3702 59.1024 21.3995 59.1405C22.8637 61.0842 25.2455 62.542 28.0958 63.2851C28.1154 63.2851 28.1349 63.3042 28.1544 63.3042C28.1935 63.3137 28.2325 63.3232 28.2813 63.3328C28.4375 63.3709 28.5937 63.3995 28.7499 63.4376C28.867 63.4662 28.9939 63.4852 29.111 63.5138C29.2477 63.5424 29.3844 63.5614 29.521 63.59C30.0872 63.6853 30.6241 63.752 31.1414 63.7901C31.1805 63.7901 31.2293 63.7901 31.2683 63.7901C31.2683 63.7901 31.2683 63.7901 31.2781 63.7901C31.6392 63.8092 32.0004 63.8282 32.3616 63.8282H32.3811C33.0156 63.8282 33.6403 63.7806 34.2748 63.7139C34.3236 63.7139 34.3627 63.7234 34.4115 63.7234C34.5384 63.7234 34.6751 63.7139 34.802 63.6853C34.8605 63.6758 34.9191 63.6663 34.9874 63.6567C35.1241 63.6377 35.2705 63.6186 35.3486 63.5996C36.1783 63.4566 36.9592 63.3042 37.6913 63.1327C37.7597 63.1136 37.8085 63.0851 37.8768 63.0565C38.1208 62.9993 38.3551 62.9421 38.5894 62.8754C38.7261 62.8373 38.8725 62.8087 39.0091 62.7706C39.4972 62.6277 39.956 62.4753 40.405 62.3228C40.4636 62.3038 40.5319 62.2847 40.5905 62.2656C43.0894 61.351 44.8758 60.1314 45.9983 58.5878C46.75 57.5493 47.1209 56.4726 47.2868 55.4055C47.648 55.1387 47.9799 54.8243 48.2532 54.4527C48.8389 53.6524 49.0439 52.7091 48.8194 51.8135C48.7901 51.7086 48.7511 51.6134 48.712 51.5086C49.4148 50.8797 50.0981 50.1842 50.7912 49.3457C51.3085 49.9746 51.8259 50.5272 52.3433 51.0226C52.1871 51.2608 52.0699 51.5276 52.0016 51.8135C51.7771 52.7186 51.9821 53.6524 52.5678 54.4527C52.8411 54.8338 53.1827 55.1482 53.5439 55.415C53.7099 56.4726 54.0808 57.5588 54.8324 58.5974C55.506 59.5311 56.4138 60.341 57.5852 61.0461C57.6632 61.0937 57.7511 61.1318 57.8292 61.1699C58.1513 61.351 58.4734 61.532 58.8249 61.694C58.9908 61.7702 59.1763 61.8369 59.352 61.9131C59.6448 62.037 59.9181 62.1608 60.2305 62.2752C60.5038 62.3705 60.8064 62.4657 61.0895 62.5515C61.3335 62.6277 61.5581 62.7135 61.8119 62.7802C62.173 62.885 62.5635 62.9707 62.9442 63.066C63.0028 63.0851 63.0613 63.1232 63.1297 63.1422C63.8618 63.3137 64.6427 63.4757 65.4041 63.5996C65.5505 63.6281 65.6871 63.6472 65.8336 63.6663C65.8921 63.6663 65.9507 63.6853 66.019 63.6948C66.1459 63.7234 66.2826 63.733 66.4095 63.733C66.4583 63.733 66.5071 63.733 66.5462 63.7234C67.1807 63.7901 67.8151 63.8378 68.4399 63.8378C68.4496 63.8378 68.4594 63.8378 68.4692 63.8378C68.8303 63.8378 69.1915 63.8282 69.5429 63.7996C69.5429 63.7996 69.5429 63.7996 69.5527 63.7996C69.5917 63.7996 69.6405 63.7996 69.6796 63.7996C70.1969 63.7615 70.7338 63.6948 71.3097 63.5996C71.4366 63.5805 71.5635 63.5519 71.6904 63.5329C71.8271 63.5043 71.9735 63.4757 72.1199 63.4471C72.2566 63.4185 72.3835 63.3899 72.5202 63.3614C72.569 63.3518 72.6178 63.3423 72.6666 63.3328C72.6861 63.3328 72.7154 63.3137 72.7349 63.3042C75.5755 62.561 77.9475 61.1032 79.4117 59.1691C79.441 59.1309 79.4703 59.0833 79.4996 59.0452C79.5874 58.9213 79.685 58.7879 79.7631 58.6545C79.8022 58.5974 79.8412 58.5307 79.8803 58.4735C79.9291 58.3973 79.9681 58.3306 80.0072 58.2544C80.0657 58.1591 80.1146 58.0543 80.1634 57.959C80.2122 57.8637 80.2707 57.7684 80.3098 57.6732C80.3391 57.616 80.3586 57.5493 80.3879 57.4826C80.3879 57.4731 80.3976 57.4635 80.4074 57.454C80.4074 57.454 80.4074 57.435 80.4074 57.4254C80.4367 57.3397 80.466 57.2635 80.505 57.1777C80.5441 57.0634 80.6026 56.949 80.6417 56.8347C80.71 56.6251 80.7491 56.4155 80.7979 56.2059C80.8174 56.1296 80.8369 56.0629 80.8564 55.9867C80.8564 55.9391 80.8564 55.8819 80.8759 55.8343C80.915 55.6056 80.9443 55.3769 80.954 55.1387C80.954 55.0339 80.954 54.9196 80.954 54.8148C80.954 54.6337 80.954 54.4622 80.9443 54.2812C80.9443 54.1478 80.915 54.0144 80.9052 53.8906C80.8857 53.7286 80.8662 53.5761 80.8369 53.4142C80.8076 53.2712 80.7783 53.1378 80.7491 52.9949C80.71 52.8425 80.671 52.69 80.6319 52.5376C80.5929 52.3947 80.5441 52.2613 80.4953 52.1184C80.4367 51.9659 80.3781 51.8039 80.3195 51.6515C80.261 51.5181 80.2122 51.3847 80.1438 51.2513C80.0657 51.0893 79.9779 50.9274 79.8998 50.7654C79.8315 50.6415 79.7729 50.5177 79.6948 50.3938C79.5972 50.2318 79.4996 50.0698 79.3922 49.9174C79.3239 49.8031 79.2556 49.6982 79.1775 49.5839C81.5788 48.8121 82.7209 47.0018 82.9063 46.0014C83.3065 43.829 82.428 40.923 78.6211 39.8559L78.6015 39.8463Z" fill="white"/>
<path d="M51.7664 46.1354C53.8163 48.6889 55.2707 49.9466 58.0235 52.0999V53.0527C54.9388 50.8136 53.172 49.6417 50.8195 46.1354C50.7317 45.0873 50.7609 44.4966 51.1026 43.4104C51.4833 43.1245 51.6785 43.1531 51.9909 43.6867C52.313 44.7252 52.2154 45.2493 51.7566 46.1354H51.7664Z" fill="#F8C501"/>
<path d="M49.8235 46.1354C47.7736 48.6889 46.3191 49.9466 43.5664 52.0999V53.0527C46.651 50.8136 48.4178 49.6417 50.7703 46.1354C50.8582 45.0873 50.8289 44.4966 50.4873 43.4104C50.1066 43.1245 49.9113 43.1531 49.599 43.6867C49.2768 44.7252 49.3745 45.2493 49.8332 46.1354H49.8235Z" fill="#F8C501"/>
<path d="M21.8968 55.6545C22.6289 59.742 28.5541 62.7814 35.0064 61.7143C45.3926 59.9992 45.9685 55.8832 45.2266 51.8242C44.4945 47.7367 40.0921 44.1447 32.078 45.4595C25.6452 46.5267 21.1744 51.6051 21.9066 55.664L21.8968 55.6545Z" fill="url(#paint2_linear_4061_550602)"/>
<path d="M22.2207 56.7102C28.2337 58.5015 33.8954 58.3109 39.7034 56.0147C42.5831 54.8713 44.2718 52.9657 45.0137 50.9648C45.1015 51.2412 45.1796 51.5175 45.2187 51.8128C45.9508 55.9003 45.3651 59.9974 34.9984 61.7029C29.122 62.6843 23.6947 60.226 22.2109 56.7102H22.2207Z" fill="url(#paint3_linear_4061_550602)"/>
<path d="M31.2701 61.8833C30.3428 61.8261 29.4642 61.6546 28.6248 61.4546C24.9349 58.1579 24.0076 50.7928 26.5553 47.5818C27.4827 46.9816 28.5076 46.4766 29.6204 46.0859C25.833 50.0686 27.7853 58.0626 31.2603 61.8928L31.2701 61.8833Z" fill="url(#paint4_linear_4061_550602)"/>
<path d="M31.8137 45.5236C31.8137 45.5236 31.8137 45.5046 31.8137 45.5236C31.9308 45.5046 31.9992 45.4855 32.087 45.4665C32.8094 45.3426 33.5122 45.2759 34.176 45.2188C31.8918 48.9251 31.7161 58.0529 37.2411 61.2829C36.5578 61.4449 35.8159 61.5973 35.0252 61.7307C34.8202 61.7688 34.625 61.7879 34.42 61.826C28.9243 57.5194 29.2464 48.2772 31.8137 45.5236Z" fill="url(#paint5_linear_4061_550602)"/>
<path d="M23.8384 49.9258C22.3156 52.8128 23.6724 58.5391 25.7809 60.3303C23.6822 59.1965 22.218 57.5291 21.8861 55.6521C21.5639 53.8037 22.3156 51.7266 23.8286 49.9258H23.8384Z" fill="url(#paint6_linear_4061_550602)"/>
<path d="M30.457 46.1158C29.022 41.0946 30.9743 39.351 33.7075 38.5316C36.4407 37.7122 37.6609 39.6845 37.944 40.4372C38.6663 42.581 37.2314 45.2774 30.457 46.1158Z" fill="#87CAFA"/>
<path d="M30.4956 46.1053C28.8264 41.1317 25.8686 40.8078 22.7645 41.6748C19.6604 42.5419 19.7189 44.8476 19.8654 45.648C20.0118 46.4579 22.5205 50.3072 30.4956 46.1053Z" fill="#87CAFA"/>
<path d="M37.5834 52.9558C37.7201 52.9272 37.8372 52.8033 37.8568 52.6509C37.886 52.346 38.3253 51.7934 38.7841 51.7076C38.95 51.679 39.2136 51.6695 39.4479 52.0887C39.5552 52.2602 39.7602 52.3174 39.9359 52.2126C40.1019 52.1078 40.1605 51.8982 40.0433 51.7267C39.7017 51.155 39.1941 50.8882 38.6181 51.0026C37.8372 51.155 37.1832 51.9553 37.1246 52.5556C37.0954 52.7557 37.2515 52.9272 37.4273 52.9653C37.5249 52.9653 37.5737 52.9653 37.5932 52.9653L37.5834 52.9558Z" fill="#0D2640"/>
<path d="M41.4975 51.7761C41.6342 51.7475 41.7513 51.6237 41.7708 51.4712C41.8001 51.1663 42.2394 50.6137 42.6982 50.5279C42.8641 50.4993 43.1277 50.4898 43.3619 50.9091C43.4693 51.0806 43.6743 51.1377 43.85 51.0329C44.0159 50.9281 44.0745 50.7185 43.9574 50.547C43.6157 49.9753 43.1081 49.7085 42.5322 49.8229C41.7513 49.9753 41.0973 50.7757 41.0387 51.3759C41.0094 51.576 41.1656 51.7475 41.3413 51.7856C41.4389 51.7856 41.4877 51.7856 41.5073 51.7856L41.4975 51.7761Z" fill="#0D2640"/>
<path d="M43.8523 52.9941C42.7004 52.3176 41.7926 52.7369 41.6169 53.3371C41.5974 53.4134 41.49 53.4419 41.4314 53.3848C40.9629 52.9465 39.9575 53.0132 39.3132 54.147C38.4347 55.7001 36.746 55.8525 36.4336 54.9188C36.8241 56.1098 39.1375 56.0431 40.6115 55.4809C41.3924 55.1856 41.7536 54.5567 41.695 53.9755C41.9586 54.5091 42.5931 54.8807 43.4325 54.7663C45.0041 54.5567 47.0443 53.5086 46.7514 52.2891C46.9662 53.2419 45.4239 53.9088 43.8425 52.9846L43.8523 52.9941Z" fill="#B67F5F"/>
<path d="M36.4347 54.9314C36.4347 54.9314 36.4244 54.9023 36.4141 54.8828C36.4141 54.9023 36.4141 54.912 36.4347 54.9314Z" fill="#B67F5F"/>
<path d="M45.9113 51.6811C45.4525 51.7859 45.1792 52.2147 45.2963 52.6244C45.3158 52.7006 45.4134 52.7578 45.5013 52.7387C45.5989 52.7196 45.6575 52.6244 45.638 52.5386C45.5696 52.2909 45.7356 52.0336 46.0187 51.9765C46.2822 51.9193 46.536 52.0813 46.6043 52.3195C46.6727 52.5958 46.6043 52.8911 46.3993 53.1675C46.3017 53.3008 46.1846 53.4247 46.0479 53.539C45.433 53.9297 44.4568 54.1584 43.2854 53.4819C42.5729 53.0722 41.9091 53.177 41.6943 53.4628C41.6455 53.5295 41.5479 53.5581 41.4698 53.52C41.1379 53.3771 40.5034 53.5962 40.1032 54.3013C39.4492 55.4351 38.4828 55.7114 37.741 55.6638C37.5555 55.6257 37.3895 55.578 37.2431 55.5113C36.9112 55.3684 36.7062 55.1493 36.6184 54.873C36.5403 54.6348 36.6867 54.3775 36.9503 54.3013C37.2138 54.2251 37.4969 54.368 37.5652 54.6062C37.5848 54.6824 37.6726 54.7396 37.7605 54.7205C37.8581 54.7015 37.9264 54.6157 37.8971 54.5204C37.78 54.1107 37.3212 53.8725 36.8722 53.9869C36.4134 54.1107 36.1596 54.5585 36.2865 54.9682C36.4036 55.3303 36.6672 55.6066 37.0869 55.7876C37.8874 56.1402 39.088 56.0925 40.0739 55.8353C40.2984 55.7781 40.5034 55.7114 40.6987 55.6352C41.4796 55.3398 41.7334 54.7491 41.7431 54.2251C41.7431 54.1774 41.8115 54.1584 41.831 54.206C42.1141 54.6538 42.6412 55.0445 43.4807 54.9301C43.6857 54.9015 43.9004 54.8634 44.1249 54.8063C45.1108 54.5585 46.1846 54.0345 46.6922 53.3485C46.9558 52.9864 47.0436 52.6244 46.9557 52.2623C46.8581 51.8431 46.3993 51.5763 45.9406 51.6906L45.9113 51.6811Z" fill="#A06E50"/>
<path d="M78.9357 55.6545C78.2036 59.742 72.2784 62.7814 65.826 61.7143C55.4399 59.9992 54.864 55.8832 55.6058 51.8242C56.3379 47.7367 60.7403 44.1447 68.7545 45.4595C75.1873 46.5267 79.658 51.6051 78.9259 55.664L78.9357 55.6545Z" fill="url(#paint7_linear_4061_550602)"/>
<path d="M78.6104 56.7102C72.5974 58.5015 66.9358 58.3109 61.1277 56.0147C58.2481 54.8713 56.5594 52.9657 55.8175 50.9648C55.7296 51.2412 55.6515 51.5175 55.6125 51.8128C54.8804 55.9003 55.4661 59.9974 65.8327 61.7029C71.7091 62.6843 77.1365 60.226 78.6202 56.7102H78.6104Z" fill="url(#paint8_linear_4061_550602)"/>
<path d="M69.5625 61.8833C70.4898 61.8261 71.3684 61.6546 72.2078 61.4546C75.8977 58.1579 76.825 50.7928 74.2773 47.5818C73.3499 46.9816 72.325 46.4766 71.2122 46.0859C74.9996 50.0686 73.0473 58.0626 69.5723 61.8928L69.5625 61.8833Z" fill="url(#paint9_linear_4061_550602)"/>
<path d="M69.0055 45.5158C69.0055 45.5158 69.0055 45.4968 69.0055 45.5158C68.8883 45.4968 68.82 45.4777 68.7322 45.4587C68.0098 45.3348 67.307 45.2681 66.6432 45.2109C68.9274 48.9173 69.1031 58.0451 63.5781 61.2751C64.2614 61.4371 65.0033 61.5895 65.794 61.7229C65.999 61.761 66.1942 61.7801 66.3992 61.8182C71.8949 57.5116 71.5727 48.2694 69.0055 45.5158Z" fill="url(#paint10_linear_4061_550602)"/>
<path d="M76.9894 49.9258C78.5122 52.8128 77.1553 58.5391 75.0469 60.3303C77.1456 59.1965 78.6098 57.5291 78.9417 55.6521C79.2638 53.8037 78.5122 51.7266 76.9992 49.9258H76.9894Z" fill="url(#paint11_linear_4061_550602)"/>
<path d="M70.3745 46.1158C71.8094 41.0946 69.8571 39.351 67.1239 38.5316C64.3907 37.7122 63.1705 39.6845 62.8875 40.4372C62.1651 42.581 63.6 45.2774 70.3745 46.1158Z" fill="#87CAFA"/>
<path d="M70.332 46.1053C72.0012 41.1317 74.959 40.8078 78.0631 41.6748C81.1672 42.5419 81.1087 44.8476 80.9622 45.648C80.8158 46.4579 78.3071 50.3072 70.332 46.1053Z" fill="#87CAFA"/>
<path d="M63.2361 52.9558C63.0994 52.9272 62.9823 52.8033 62.9628 52.6509C62.9335 52.346 62.4942 51.7934 62.0354 51.7076C61.8695 51.679 61.6059 51.6695 61.3717 52.0887C61.2643 52.2602 61.0593 52.3174 60.8836 52.2126C60.7177 52.1078 60.6591 51.8982 60.7762 51.7267C61.1179 51.155 61.6255 50.8882 62.2014 51.0026C62.9823 51.155 63.6363 51.9553 63.6949 52.5556C63.7242 52.7557 63.568 52.9272 63.3923 52.9653C63.2947 52.9653 63.2459 52.9653 63.2263 52.9653L63.2361 52.9558Z" fill="#0D2640"/>
<path d="M59.3338 51.7761C59.1971 51.7475 59.08 51.6237 59.0604 51.4712C59.0312 51.1663 58.5919 50.6137 58.1331 50.5279C57.9672 50.4993 57.7036 50.4898 57.4693 50.9091C57.362 51.0806 57.157 51.1377 56.9813 51.0329C56.8153 50.9281 56.7567 50.7185 56.8739 50.547C57.2155 49.9753 57.7231 49.7085 58.2991 49.8229C59.08 49.9753 59.734 50.7757 59.7926 51.3759C59.8218 51.576 59.6657 51.7475 59.4899 51.7856C59.3923 51.7856 59.3435 51.7856 59.324 51.7856L59.3338 51.7761Z" fill="#0D2640"/>
<path d="M56.9782 52.9941C58.1301 52.3176 59.0379 52.7369 59.2136 53.3371C59.2331 53.4134 59.3405 53.4419 59.3991 53.3848C59.8676 52.9465 60.873 53.0132 61.5173 54.147C62.3958 55.7001 64.0846 55.8525 64.3969 54.9188C64.0065 56.1098 61.693 56.0431 60.219 55.4809C59.4381 55.1856 59.0769 54.5567 59.1355 53.9755C58.872 54.5091 58.2375 54.8807 57.398 54.7663C55.8264 54.5567 53.7862 53.5086 54.0791 52.2891C53.8643 53.2419 55.4066 53.9088 56.988 52.9846L56.9782 52.9941Z" fill="#B67F5F"/>
<path d="M64.3984 54.9314C64.3984 54.9314 64.4088 54.9023 64.4191 54.8828C64.4191 54.9023 64.4191 54.912 64.3984 54.9314Z" fill="#B67F5F"/>
<path d="M54.9212 51.6811C55.38 51.7859 55.6533 52.2147 55.5361 52.6244C55.5166 52.7006 55.419 52.7578 55.3311 52.7387C55.2335 52.7196 55.175 52.6244 55.1945 52.5386C55.2628 52.2909 55.0969 52.0336 54.8138 51.9765C54.5502 51.9193 54.2964 52.0813 54.2281 52.3195C54.1598 52.5958 54.2281 52.8911 54.4331 53.1675C54.5307 53.3008 54.6478 53.4247 54.7845 53.539C55.3995 53.9297 56.3756 54.1584 57.547 53.4819C58.2693 53.0722 58.9234 53.177 59.1381 53.4628C59.1869 53.5295 59.2845 53.5581 59.3626 53.52C59.6945 53.3771 60.329 53.5962 60.7292 54.3013C61.3832 55.4351 62.3496 55.7114 63.0915 55.6638C63.277 55.6257 63.4429 55.578 63.5893 55.5113C63.9212 55.3684 64.1262 55.1493 64.2141 54.873C64.2922 54.6348 64.1457 54.3775 63.8822 54.3013C63.6186 54.2251 63.3355 54.368 63.2672 54.6062C63.2477 54.6824 63.1598 54.7396 63.072 54.7205C62.9744 54.7015 62.906 54.6157 62.9353 54.5204C63.0524 54.1107 63.5112 53.8725 63.9603 53.9869C64.419 54.1107 64.6728 54.5585 64.5459 54.9682C64.4288 55.3303 64.1652 55.6066 63.7455 55.7876C62.9451 56.1402 61.7444 56.0925 60.7585 55.8353C60.534 55.7781 60.329 55.7114 60.1338 55.6352C59.3529 55.3398 59.0991 54.7491 59.0893 54.2251C59.0893 54.1774 59.021 54.1584 59.0015 54.206C58.7184 54.6538 58.1912 55.0445 57.3518 54.9301C57.1468 54.9015 56.932 54.8634 56.7075 54.8063C55.7216 54.5585 54.6478 54.0345 54.1403 53.3485C53.8767 52.9864 53.7888 52.6244 53.8767 52.2623C53.9743 51.8431 54.4331 51.5763 54.8919 51.6906L54.9212 51.6811Z" fill="#A06E50"/>
<path d="M69.7433 26.6582L70.0707 27.7115C70.083 27.7539 70.1057 27.793 70.137 27.8255C70.1682 27.858 70.207 27.883 70.2503 27.8985L71.262 28.2394C71.3193 28.2622 71.3682 28.3007 71.4025 28.3499C71.4369 28.3991 71.4553 28.4569 71.4553 28.516C71.4553 28.5751 71.4369 28.6329 71.4025 28.6822C71.3682 28.7314 71.3193 28.7698 71.262 28.7927L70.2503 29.1336C70.207 29.1491 70.1682 29.1741 70.137 29.2066C70.1058 29.2391 70.083 29.2782 70.0707 29.3206L69.7433 30.3734C69.7295 30.4306 69.6957 30.4816 69.6474 30.5182C69.5992 30.5547 69.5393 30.5746 69.4776 30.5746C69.416 30.5746 69.3561 30.5547 69.3079 30.5182C69.2596 30.4816 69.2258 30.4306 69.2119 30.3734L68.8846 29.3206C68.8723 29.2781 68.8495 29.2391 68.8183 29.2066C68.7871 29.174 68.7483 29.149 68.705 29.1335L67.6933 28.7926C67.636 28.7697 67.5871 28.7313 67.5527 28.682C67.5183 28.6328 67.5 28.575 67.5 28.5159C67.5 28.4568 67.5183 28.399 67.5527 28.3498C67.5871 28.3006 67.636 28.2621 67.6933 28.2392L68.705 27.8984C68.7483 27.8829 68.7871 27.8578 68.8183 27.8253C68.8495 27.7928 68.8722 27.7538 68.8846 27.7114L69.2119 26.6582C69.2258 26.601 69.2596 26.55 69.3079 26.5135C69.3561 26.4769 69.416 26.457 69.4776 26.457C69.5393 26.457 69.5992 26.4769 69.6474 26.5135C69.6957 26.55 69.7295 26.601 69.7433 26.6582Z" fill="white"/>
<path d="M30.8493 69.2276L31.0507 69.8671C31.0583 69.8929 31.0723 69.9166 31.0915 69.9363C31.1107 69.956 31.1346 69.9712 31.1613 69.9806L31.7838 70.1876C31.8191 70.2015 31.8492 70.2248 31.8703 70.2547C31.8915 70.2846 31.9028 70.3197 31.9028 70.3556C31.9028 70.3915 31.8915 70.4266 31.8703 70.4564C31.8492 70.4863 31.8191 70.5097 31.7838 70.5236L31.1613 70.7305C31.1346 70.7399 31.1107 70.7551 31.0915 70.7749C31.0723 70.7946 31.0583 70.8183 31.0507 70.8441L30.8493 71.4833C30.8407 71.518 30.8199 71.549 30.7902 71.5712C30.7605 71.5933 30.7237 71.6054 30.6858 71.6054C30.6478 71.6054 30.611 71.5933 30.5813 71.5712C30.5516 71.549 30.5308 71.518 30.5223 71.4833L30.3208 70.8441C30.3132 70.8183 30.2992 70.7946 30.28 70.7748C30.2608 70.7551 30.2369 70.7399 30.2103 70.7304L29.5877 70.5235C29.5525 70.5096 29.5224 70.4863 29.5012 70.4564C29.48 70.4265 29.4688 70.3914 29.4688 70.3555C29.4688 70.3196 29.48 70.2845 29.5012 70.2546C29.5224 70.2248 29.5525 70.2014 29.5877 70.1875L30.2103 69.9806C30.2369 69.9712 30.2608 69.956 30.28 69.9362C30.2992 69.9165 30.3132 69.8928 30.3208 69.867L30.5223 69.2276C30.5308 69.1929 30.5516 69.1619 30.5813 69.1397C30.611 69.1175 30.6478 69.1055 30.6858 69.1055C30.7237 69.1055 30.7605 69.1175 30.7902 69.1397C30.8199 69.1619 30.8407 69.1929 30.8493 69.2276Z" fill="white"/>
<path d="M20.7131 65.6485L21.0782 66.8146C21.092 66.8616 21.1174 66.9048 21.1522 66.9408C21.187 66.9768 21.2303 67.0045 21.2786 67.0217L22.407 67.3991C22.4709 67.4244 22.5254 67.467 22.5638 67.5215C22.6021 67.576 22.6226 67.6399 22.6226 67.7054C22.6226 67.7708 22.6021 67.8348 22.5638 67.8893C22.5254 67.9438 22.4709 67.9864 22.407 68.0117L21.2786 68.3891C21.2303 68.4063 21.187 68.434 21.1522 68.47C21.1174 68.5059 21.092 68.5492 21.0782 68.5962L20.7131 69.7618C20.6977 69.8251 20.66 69.8816 20.6061 69.922C20.5523 69.9625 20.4856 69.9845 20.4168 69.9845C20.348 69.9845 20.2812 69.9625 20.2274 69.922C20.1736 69.8816 20.1359 69.8251 20.1204 69.7618L19.7553 68.5962C19.7415 68.5492 19.7162 68.5059 19.6814 68.4699C19.6466 68.4339 19.6032 68.4062 19.5549 68.389L18.4266 68.0116C18.3627 67.9863 18.3081 67.9437 18.2698 67.8892C18.2314 67.8347 18.2109 67.7707 18.2109 67.7053C18.2109 67.6398 18.2314 67.5758 18.2698 67.5213C18.3081 67.4668 18.3627 67.4243 18.4266 67.3989L19.5549 67.0216C19.6032 67.0044 19.6465 66.9767 19.6814 66.9407C19.7162 66.9047 19.7415 66.8615 19.7553 66.8145L20.1204 65.6485C20.1359 65.5852 20.1736 65.5287 20.2274 65.4883C20.2812 65.4478 20.348 65.4258 20.4168 65.4258C20.4856 65.4258 20.5523 65.4478 20.6061 65.4883C20.66 65.5287 20.6977 65.5852 20.7131 65.6485Z" fill="white"/>
<path d="M78.0957 34.8136L78.3097 35.453C78.3178 35.4788 78.3327 35.5025 78.3531 35.5222C78.3735 35.542 78.3989 35.5572 78.4272 35.5666L79.0887 35.7735C79.1261 35.7874 79.1581 35.8108 79.1806 35.8406C79.2031 35.8705 79.2151 35.9056 79.2151 35.9415C79.2151 35.9774 79.2031 36.0125 79.1806 36.0424C79.1581 36.0723 79.1261 36.0956 79.0887 36.1095L78.4272 36.3164C78.3989 36.3259 78.3735 36.3411 78.3531 36.3608C78.3327 36.3805 78.3178 36.4042 78.3097 36.43L78.0957 37.0692C78.0866 37.1039 78.0645 37.1349 78.033 37.1571C78.0014 37.1793 77.9623 37.1914 77.922 37.1914C77.8817 37.1914 77.8425 37.1793 77.811 37.1571C77.7794 37.1349 77.7573 37.1039 77.7483 37.0692L77.5342 36.43C77.5262 36.4042 77.5113 36.3805 77.4909 36.3608C77.4705 36.341 77.4451 36.3258 77.4168 36.3164L76.7553 36.1094C76.7179 36.0955 76.6859 36.0722 76.6634 36.0423C76.6409 36.0124 76.6289 35.9773 76.6289 35.9414C76.6289 35.9056 76.6409 35.8705 76.6634 35.8406C76.6859 35.8107 76.7179 35.7873 76.7553 35.7735L77.4168 35.5665C77.4451 35.5571 77.4705 35.5419 77.4909 35.5222C77.5113 35.5024 77.5261 35.4787 77.5342 35.453L77.7483 34.8136C77.7573 34.7788 77.7794 34.7479 77.811 34.7257C77.8425 34.7035 77.8817 34.6914 77.922 34.6914C77.9623 34.6914 78.0014 34.7035 78.033 34.7257C78.0645 34.7479 78.0866 34.7788 78.0957 34.8136Z" fill="white"/>
<path d="M69.9671 72.4764L70.1938 73.1911C70.2023 73.2199 70.218 73.2464 70.2397 73.2684C70.2613 73.2905 70.2882 73.3075 70.3181 73.318L71.0185 73.5493C71.0582 73.5648 71.092 73.5909 71.1158 73.6243C71.1396 73.6577 71.1523 73.6969 71.1523 73.737C71.1523 73.7771 71.1396 73.8164 71.1158 73.8498C71.092 73.8832 71.0582 73.9093 71.0185 73.9248L70.3181 74.1561C70.2882 74.1666 70.2613 74.1836 70.2397 74.2056C70.2181 74.2277 70.2023 74.2542 70.1938 74.283L69.9671 74.9974C69.9576 75.0362 69.9341 75.0708 69.9007 75.0956C69.8673 75.1204 69.8259 75.1339 69.7832 75.1339C69.7405 75.1339 69.6991 75.1204 69.6657 75.0956C69.6323 75.0708 69.6088 75.0362 69.5993 74.9974L69.3726 74.283C69.3641 74.2542 69.3484 74.2277 69.3268 74.2056C69.3051 74.1835 69.2782 74.1665 69.2483 74.156L68.5479 73.9247C68.5082 73.9092 68.4744 73.8831 68.4506 73.8497C68.4268 73.8163 68.4141 73.7771 68.4141 73.7369C68.4141 73.6968 68.4268 73.6576 68.4506 73.6242C68.4744 73.5908 68.5082 73.5647 68.5479 73.5492L69.2483 73.3179C69.2782 73.3074 69.3051 73.2904 69.3267 73.2683C69.3484 73.2463 69.3641 73.2198 69.3726 73.191L69.5993 72.4764C69.6088 72.4376 69.6323 72.4029 69.6657 72.3781C69.6991 72.3533 69.7405 72.3398 69.7832 72.3398C69.8259 72.3398 69.8673 72.3533 69.9007 72.3781C69.9341 72.4029 69.9576 72.4376 69.9671 72.4764Z" fill="white"/>
<path d="M35.2136 24.3937L35.4528 25.146C35.4618 25.1763 35.4784 25.2042 35.5012 25.2274C35.524 25.2507 35.5524 25.2685 35.5841 25.2796L36.3234 25.5231C36.3652 25.5394 36.4009 25.5669 36.4261 25.602C36.4512 25.6372 36.4646 25.6785 36.4646 25.7207C36.4646 25.7629 36.4512 25.8042 36.4261 25.8394C36.4009 25.8745 36.3652 25.902 36.3234 25.9183L35.5841 26.1618C35.5524 26.1729 35.5241 26.1908 35.5012 26.214C35.4784 26.2372 35.4618 26.2651 35.4528 26.2954L35.2136 27.0474C35.2035 27.0883 35.1787 27.1247 35.1435 27.1508C35.1082 27.1769 35.0645 27.1911 35.0194 27.1911C34.9744 27.1911 34.9306 27.1769 34.8954 27.1508C34.8601 27.1247 34.8354 27.0883 34.8253 27.0474L34.586 26.2954C34.577 26.2651 34.5604 26.2372 34.5376 26.2139C34.5148 26.1907 34.4864 26.1728 34.4548 26.1617L33.7155 25.9183C33.6736 25.9019 33.6379 25.8745 33.6128 25.8393C33.5876 25.8041 33.5742 25.7629 33.5742 25.7206C33.5742 25.6784 33.5876 25.6371 33.6128 25.602C33.6379 25.5668 33.6736 25.5393 33.7155 25.523L34.4548 25.2795C34.4864 25.2685 34.5148 25.2506 34.5376 25.2274C34.5604 25.2042 34.577 25.1763 34.586 25.1459L34.8253 24.3937C34.8354 24.3529 34.8601 24.3164 34.8954 24.2903C34.9306 24.2642 34.9744 24.25 35.0194 24.25C35.0645 24.25 35.1082 24.2642 35.1435 24.2903C35.1787 24.3164 35.2035 24.3529 35.2136 24.3937Z" fill="white"/>
<path d="M24.4005 27.6488L24.9041 29.2663C24.9231 29.3315 24.9581 29.3914 25.0061 29.4414C25.0541 29.4913 25.1139 29.5297 25.1805 29.5535L26.7369 30.077C26.825 30.1121 26.9002 30.1712 26.9531 30.2468C27.006 30.3223 27.0343 30.4111 27.0343 30.5019C27.0343 30.5927 27.006 30.6814 26.9531 30.757C26.9002 30.8326 26.825 30.8917 26.7369 30.9268L25.1805 31.4502C25.1139 31.4741 25.0541 31.5125 25.0061 31.5624C24.9581 31.6123 24.9231 31.6723 24.9041 31.7375L24.4005 33.3543C24.3792 33.4421 24.3272 33.5205 24.2529 33.5766C24.1787 33.6327 24.0866 33.6632 23.9917 33.6632C23.8969 33.6632 23.8048 33.6327 23.7306 33.5766C23.6563 33.5205 23.6043 33.4421 23.583 33.3543L23.0794 31.7375C23.0604 31.6723 23.0254 31.6123 22.9774 31.5623C22.9294 31.5124 22.8696 31.4739 22.803 31.4501L21.2466 30.9266C21.1585 30.8915 21.0833 30.8324 21.0304 30.7568C20.9774 30.6812 20.9492 30.5925 20.9492 30.5017C20.9492 30.4109 20.9774 30.3222 21.0304 30.2466C21.0833 30.171 21.1585 30.1119 21.2466 30.0768L22.803 29.5533C22.8696 29.5295 22.9294 29.4911 22.9774 29.4412C23.0254 29.3913 23.0604 29.3313 23.0794 29.2661L23.583 27.6488C23.6043 27.561 23.6563 27.4826 23.7306 27.4265C23.8048 27.3704 23.8969 27.3398 23.9917 27.3398C24.0866 27.3398 24.1787 27.3704 24.2529 27.4265C24.3272 27.4826 24.3792 27.561 24.4005 27.6488Z" fill="white"/>
<path d="M78.1712 67.2912L78.5741 68.5701C78.5893 68.6216 78.6172 68.6691 78.6557 68.7085C78.6941 68.748 78.7419 68.7784 78.7952 68.7972L80.0403 69.2111C80.1108 69.2389 80.171 69.2856 80.2133 69.3454C80.2556 69.4051 80.2782 69.4753 80.2782 69.5471C80.2782 69.6189 80.2556 69.689 80.2133 69.7488C80.171 69.8086 80.1108 69.8553 80.0403 69.883L78.7952 70.297C78.7419 70.3158 78.6941 70.3462 78.6557 70.3857C78.6172 70.4251 78.5893 70.4725 78.5741 70.5241L78.1712 71.8025C78.1541 71.8719 78.1125 71.9339 78.0531 71.9782C77.9937 72.0226 77.9201 72.0468 77.8442 72.0468C77.7683 72.0468 77.6946 72.0226 77.6352 71.9782C77.5758 71.9339 77.5342 71.8719 77.5172 71.8025L77.1143 70.5241C77.0991 70.4725 77.0711 70.4251 77.0327 70.3856C76.9943 70.3461 76.9465 70.3157 76.8932 70.2968L75.6481 69.8829C75.5776 69.8552 75.5174 69.8085 75.4751 69.7487C75.4327 69.6889 75.4102 69.6187 75.4102 69.547C75.4102 69.4752 75.4327 69.405 75.4751 69.3452C75.5174 69.2855 75.5776 69.2388 75.6481 69.211L76.8932 68.7971C76.9465 68.7783 76.9943 68.7479 77.0327 68.7084C77.0711 68.6689 77.0991 68.6215 77.1143 68.57L77.5172 67.2912C77.5342 67.2217 77.5758 67.1598 77.6352 67.1154C77.6946 67.071 77.7683 67.0469 77.8442 67.0469C77.9201 67.0469 77.9937 67.071 78.0531 67.1154C78.1125 67.1598 78.1541 67.2217 78.1712 67.2912Z" fill="white"/>
</g>
<defs>
<linearGradient id="paint0_linear_4061_550602" x1="49.8203" y1="13.6316" x2="49.8203" y2="96.6076" gradientUnits="userSpaceOnUse">
<stop stop-color="#003EA1"/>
<stop offset="1" stop-color="#015CBE"/>
</linearGradient>
<radialGradient id="paint1_radial_4061_550602" cx="0" cy="0" r="1" gradientUnits="userSpaceOnUse" gradientTransform="translate(50.1795 51.542) rotate(91.3229) scale(32.9492 34.0858)">
<stop stop-color="white"/>
<stop offset="1" stop-color="white" stop-opacity="0"/>
</radialGradient>
<linearGradient id="paint2_linear_4061_550602" x1="45.0997" y1="51.2144" x2="22.0036" y2="56.1744" gradientUnits="userSpaceOnUse">
<stop stop-color="#F9C900"/>
<stop offset="1" stop-color="#EA9F00"/>
</linearGradient>
<linearGradient id="paint3_linear_4061_550602" x1="36.4919" y1="46.7821" x2="30.7424" y2="67.3124" gradientUnits="userSpaceOnUse">
<stop stop-color="#F9C900"/>
<stop offset="1" stop-color="#D07800"/>
</linearGradient>
<linearGradient id="paint4_linear_4061_550602" x1="27.0044" y1="47.5437" x2="29.1644" y2="61.8515" gradientUnits="userSpaceOnUse">
<stop stop-color="#7E3200"/>
<stop offset="1" stop-color="#411300"/>
</linearGradient>
<linearGradient id="paint5_linear_4061_550602" x1="31.3452" y1="45.295" x2="34.5217" y2="62.4069" gradientUnits="userSpaceOnUse">
<stop stop-color="#7E3200"/>
<stop offset="1" stop-color="#411300"/>
</linearGradient>
<linearGradient id="paint6_linear_4061_550602" x1="23.4479" y1="52.3268" x2="23.8293" y2="58.4259" gradientUnits="userSpaceOnUse">
<stop stop-color="#7E3200"/>
<stop offset="1" stop-color="#411300"/>
</linearGradient>
<linearGradient id="paint7_linear_4061_550602" x1="55.7327" y1="51.2144" x2="78.8289" y2="56.1744" gradientUnits="userSpaceOnUse">
<stop stop-color="#F9C900"/>
<stop offset="1" stop-color="#EA9F00"/>
</linearGradient>
<linearGradient id="paint8_linear_4061_550602" x1="64.3295" y1="46.7821" x2="70.0884" y2="67.3126" gradientUnits="userSpaceOnUse">
<stop stop-color="#F9C900"/>
<stop offset="1" stop-color="#D07800"/>
</linearGradient>
<linearGradient id="paint9_linear_4061_550602" x1="73.8282" y1="47.5437" x2="71.6589" y2="61.8516" gradientUnits="userSpaceOnUse">
<stop stop-color="#7E3200"/>
<stop offset="1" stop-color="#411300"/>
</linearGradient>
<linearGradient id="paint10_linear_4061_550602" x1="69.474" y1="45.2967" x2="66.3068" y2="62.4084" gradientUnits="userSpaceOnUse">
<stop stop-color="#7E3200"/>
<stop offset="1" stop-color="#411300"/>
</linearGradient>
<linearGradient id="paint11_linear_4061_550602" x1="77.3799" y1="52.3268" x2="76.9892" y2="58.426" gradientUnits="userSpaceOnUse">
<stop stop-color="#7E3200"/>
<stop offset="1" stop-color="#411300"/>
</linearGradient>
</defs>
</svg>
