<?xml version="1.0" encoding="UTF-8"?> <svg xmlns="http://www.w3.org/2000/svg" xmlns:xlink="http://www.w3.org/1999/xlink" viewBox="0 0 313.7805 272.3033"><defs><linearGradient id="bb2516c7-1123-4912-a31d-7dbb935194f9" x1="146.46" y1="99.5596" x2="21.9107" y2="136.5681" gradientUnits="userSpaceOnUse"><stop offset="0.4464" stop-color="#41a1ed"></stop><stop offset="0.9828" stop-color="#41a1ed" stop-opacity="0"></stop></linearGradient><linearGradient id="aa2d46f6-bb4c-4523-82ed-3a54a7bedc64" x1="143.2688" y1="92.7238" x2="26.2751" y2="127.4872" xlink:href="#bb2516c7-1123-4912-a31d-7dbb935194f9"></linearGradient><linearGradient id="afd9a8b3-6066-4cd2-9d5e-10dc4296bf8e" x1="141.4602" y1="82.7177" x2="16.915" y2="119.725" xlink:href="#bb2516c7-1123-4912-a31d-7dbb935194f9"></linearGradient><linearGradient id="e7b9bd05-0af0-4dfe-bc9c-4eac6aa4f76e" x1="301.6715" y1="-1853.2005" x2="302.7407" y2="-1801.8778" gradientTransform="translate(-682.4594 1736.7433) rotate(20.0336)" gradientUnits="userSpaceOnUse"><stop offset="0" stop-color="#015cbe"></stop><stop offset="1" stop-color="#003ea1"></stop></linearGradient><linearGradient id="a85a0b74-3c9b-40fe-b5dd-9ce159010c8a" x1="-10902.2572" y1="202.503" x2="-10821.3431" y2="202.503" gradientTransform="matrix(-0.9996, 0.0298, 0.0298, 0.9996, -10679.7739, 220.5965)" gradientUnits="userSpaceOnUse"><stop offset="0.0008" stop-color="#f9c900"></stop><stop offset="1" stop-color="#ea9f00"></stop></linearGradient><linearGradient id="b687e477-a7e4-4a57-a793-6a35b08df7a6" x1="-10875.3916" y1="181.5589" x2="-10843.1979" y2="245.9464" gradientTransform="matrix(-0.9996, 0.0298, 0.0298, 0.9996, -10679.7739, 220.5965)" gradientUnits="userSpaceOnUse"><stop offset="0.0008" stop-color="#f9c900"></stop><stop offset="0.9992" stop-color="#d07800"></stop></linearGradient><linearGradient id="a4ffb25d-d17c-49e5-856a-ab13fd1d0852" x1="-10844.1923" y1="178.4093" x2="-10841.9399" y2="226.7338" gradientTransform="matrix(-0.9996, 0.0298, 0.0298, 0.9996, -10679.7739, 220.5965)" gradientUnits="userSpaceOnUse"><stop offset="0.0008" stop-color="#7e3200"></stop><stop offset="1" stop-color="#411300"></stop></linearGradient><linearGradient id="fdf281ef-26f5-42a8-abf6-b4b69985ddae" x1="-10860.3229" y1="173.8988" x2="-10859.5039" y2="232.052" xlink:href="#a4ffb25d-d17c-49e5-856a-ab13fd1d0852"></linearGradient><linearGradient id="a041448d-120b-41fa-bd46-daa7677d1456" x1="-10828.6468" y1="191.7024" x2="-10825.9526" y2="211.988" xlink:href="#a4ffb25d-d17c-49e5-856a-ab13fd1d0852"></linearGradient><linearGradient id="b70e37bb-1281-4b2a-82f4-7df1b034c24a" x1="161.9358" y1="169.7474" x2="298.3207" y2="193.8479" xlink:href="#bb2516c7-1123-4912-a31d-7dbb935194f9"></linearGradient><linearGradient id="bfea329e-50f9-4c26-87b4-a0cc20e101a0" x1="161.7046" y1="175.6718" x2="291.7787" y2="198.6571" xlink:href="#bb2516c7-1123-4912-a31d-7dbb935194f9"></linearGradient><linearGradient id="a37a0010-0419-4f3a-9b87-e394e71cc3f1" x1="162.2268" y1="168.0217" x2="298.6282" y2="192.1251" xlink:href="#bb2516c7-1123-4912-a31d-7dbb935194f9"></linearGradient><linearGradient id="b1fa993d-e31d-45fb-ba19-c2e837a03200" x1="-1314.9733" y1="678.6964" x2="-1313.9041" y2="730.0191" gradientTransform="matrix(0.8224, -0.5688, 0.5688, 0.8224, 759.3419, -1133.6806)" xlink:href="#e7b9bd05-0af0-4dfe-bc9c-4eac6aa4f76e"></linearGradient><linearGradient id="fb71cfa7-5d7f-46f2-9c4b-c5312930729a" x1="-126.9749" y1="-46.603" x2="-46.0609" y2="-46.603" gradientTransform="translate(210.2384 220.5965) rotate(1.7049)" xlink:href="#a85a0b74-3c9b-40fe-b5dd-9ce159010c8a"></linearGradient><linearGradient id="a5f4601b-8d60-49c0-9343-4cd160bc870d" x1="-100.1094" y1="-67.5471" x2="-67.9156" y2="-3.1597" gradientTransform="translate(210.2384 220.5965) rotate(1.7049)" xlink:href="#b687e477-a7e4-4a57-a793-6a35b08df7a6"></linearGradient><linearGradient id="b172c0f8-65c5-479c-95b8-10ab8c37b459" x1="-68.9101" y1="-70.6968" x2="-66.6577" y2="-22.3723" gradientTransform="translate(210.2384 220.5965) rotate(1.7049)" xlink:href="#a4ffb25d-d17c-49e5-856a-ab13fd1d0852"></linearGradient><linearGradient id="e88786ca-8a1c-4b2d-a948-87b14716ce0a" x1="-85.0407" y1="-75.2073" x2="-84.2216" y2="-17.0541" gradientTransform="translate(210.2384 220.5965) rotate(1.7049)" xlink:href="#a4ffb25d-d17c-49e5-856a-ab13fd1d0852"></linearGradient><linearGradient id="b8b4222b-e520-441b-b897-f61347640dd2" x1="-53.3646" y1="-57.4037" x2="-50.6704" y2="-37.1181" gradientTransform="translate(210.2384 220.5965) rotate(1.7049)" xlink:href="#a4ffb25d-d17c-49e5-856a-ab13fd1d0852"></linearGradient></defs><g id="b527e0d1-0bb1-46a7-9a48-4157d877517a" data-name="Layer 2"><g id="a7c452bb-af6c-40e8-bba6-1017f726254b" data-name="Layer 1"><rect width="313.7805" height="272.3033" fill="none"></rect><path d="M49.3135,106.2l67.3925-76.611a23.951,23.951,0,0,1,28.4293-5.7335L243.8036,71.678A23.9511,23.9511,0,0,1,256.74,88.0421l20.8685,94.04a23.9509,23.9509,0,0,1-14.2219,27.3188L157.65,253.1674a23.9513,23.9513,0,0,1-20.153-.8509L56.3038,210.3717a23.9508,23.9508,0,0,1-12.958-21.2791V122.02A23.9509,23.9509,0,0,1,49.3135,106.2Z" fill="#87cafa"></path><path d="M144.8213,103.061c-.0459,0-.0918-.0015-.1387-.0049-1.9785-.1348-3.96-.2183-5.8887-.2471a2,2,0,0,1,.0606-4c1.999.03,4.0517.1167,6.1016.2569a2,2,0,0,1-.1348,3.9951Z" fill="url(#bb2516c7-1123-4912-a31d-7dbb935194f9)"></path><path d="M44.0957,122.9609c-2.2881,0-4.6309-.0825-6.9629-.2446a2,2,0,0,1,.2774-3.99,94.3612,94.3612,0,0,0,12.7539.0352,2,2,0,1,1,.2636,3.9912C48.3379,122.8906,46.208,122.9609,44.0957,122.9609Zm19.1-1.9571a2,2,0,0,1-.3984-3.96A124.97,124.97,0,0,0,75.2,113.7885a2,2,0,0,1,1.1953,3.8174,128.9031,128.9031,0,0,1-12.7978,3.3569A1.9915,1.9915,0,0,1,63.1953,121.0038Zm24.9287-7.5253a2,2,0,0,1-.6758-3.8829l1.0088-.3623c3.6826-1.3232,7.4893-2.6909,11.3526-3.9541a2,2,0,1,1,1.2441,3.8018c-3.8086,1.2456-7.5889,2.6035-11.2441,3.9165l-1.01.3628A1.9985,1.9985,0,0,1,88.124,113.4785Zm24.84-7.8545a2,2,0,0,1-.4522-3.9483,109.69,109.69,0,0,1,13.0713-2.2505,2,2,0,0,1,.4356,3.9766,105.5974,105.5974,0,0,0-12.5987,2.1694A1.9994,1.9994,0,0,1,112.9639,105.624Z" fill="url(#aa2d46f6-bb4c-4523-82ed-3a54a7bedc64)"></path><path d="M24.2959,121.0283a2.0185,2.0185,0,0,1-.3721-.0352c-1.9521-.3677-3.957-.7935-5.959-1.2656a2,2,0,0,1,.918-3.8936c1.9443.4585,3.8887.8721,5.7813,1.2285a2,2,0,0,1-.3682,3.9659Z" fill="url(#afd9a8b3-6066-4cd2-9d5e-10dc4296bf8e)"></path><g id="b011b72b-2aa8-4bf3-9fea-fe7457b2a20d" data-name="Layer 2"><g id="af0b7b2f-25dd-4e8c-a35a-05b602c95bec" data-name="Layer 1-2"><g id="b7d9b175-7650-472c-9ff1-9249e2671f0e" data-name="img content delivery file video dblue"><path d="M235.2433,154.0246l-33.2217-12.1138a1.9585,1.9585,0,0,1-1.17-2.5086l16.252-44.57a1.959,1.959,0,0,1,2.5108-1.169l25.7885,9.4034a1.9589,1.9589,0,0,1,1.105,1.0135l2.3626,5.072,2.36,5.0719a1.9578,1.9578,0,0,1,.0645,1.4975l-13.5413,37.1368A1.958,1.958,0,0,1,235.2433,154.0246Z" fill="url(#e7b9bd05-0af0-4dfe-bc9c-4eac6aa4f76e)"></path><path d="M248.8706,109.1516l-2.3626-5.072a1.9589,1.9589,0,0,0-1.105-1.0135l-2.9558,8.1062a1.2421,1.2421,0,0,0,.7416,1.592l8.1063,2.9558a1.9582,1.9582,0,0,0-.0646-1.4975Z" fill="#0c227b"></path></g></g><path d="M228.4683,121.3446a1.3958,1.3958,0,0,0,.9686-2.6179,1.3957,1.3957,0,0,0-.9686,2.6179Z" fill="#0b82e3"></path><path d="M239.2077,121.0182l-5.7731-6.9481a4.301,4.301,0,0,0-4.0187-1.4869L220.5106,114.1a4.3013,4.3013,0,0,0-3.3025,2.74l-3.13,8.4586a4.3015,4.3015,0,0,0,.7236,4.23l5.7732,6.9481a4.301,4.301,0,0,0,4.0187,1.4869l8.9052-1.5172a4.3012,4.3012,0,0,0,3.3026-2.74l3.13-8.4586A4.3009,4.3009,0,0,0,239.2077,121.0182Zm-4.3565,11.9669a2.2155,2.2155,0,0,1-1.7012,1.4115l-8.9052,1.5172a2.2155,2.2155,0,0,1-2.07-.7659l-5.7731-6.948a2.2156,2.2156,0,0,1-.3728-2.1789l3.13-8.4586a2.2156,2.2156,0,0,1,1.7011-1.4116l8.9053-1.5171a2.2154,2.2154,0,0,1,2.07.7659l5.7731,6.948a2.2153,2.2153,0,0,1,.3727,2.1789l-3.13,8.4586Z" fill="#0b82e3"></path><rect x="225.199" y="122.5675" width="2.0797" height="9.5533" rx="1.0108" transform="translate(394.2314 325.2811) rotate(-159.6959)" fill="#0b82e3"></rect></g><path d="M142.7864,100.1683c-.056,13.8407,18.0089,27.1763,40.3592,27.2666,36.0135.1455,40.5224-13.0988,40.5783-26.94s-12.51-28.1752-40.3551-28.2877C161.0185,72.1173,142.8423,86.3275,142.7864,100.1683Z" fill="url(#a85a0b74-3c9b-40fe-b5dd-9ce159010c8a)"></path><path d="M143.196,103.8285c19.1066,9.2554,38.2974,11.7337,59.3183,7.4445,10.4375-2.13,17.2692-7.4851,21.0312-13.6637a22.7589,22.7589,0,0,1,.1784,2.886c-.056,13.8409-4.5647,27.085-40.5782,26.94C162.7771,127.3527,145.9744,116.2692,143.196,103.8285Z" fill="url(#b687e477-a7e4-4a57-a793-6a35b08df7a6)"></path><path d="M170.4266,125.9009a50.6965,50.6965,0,0,1-8.645-2.9175c-10.3744-12.8905-8.9046-37.6676,1.7064-46.8732a50.1878,50.1878,0,0,1,11.3048-3.222C159.53,83.8988,161.1654,111.3766,170.4266,125.9009Z" fill="url(#a4ffb25d-d17c-49e5-856a-ab13fd1d0852)"></path><path d="M182.4212,72.2475s.03-.0109.0775-.0261c.29-.0037.5782-.015.87-.0139,2.5233.01,4.9171.1407,7.1914.3735-10.02,10.9524-16.2893,40.9143.3481,54.6455-2.4155.1421-4.9847.22-7.7626.2084q-1.0358-.0043-2.0584-.0464C165.3267,110.1559,172.1551,79.9577,182.4212,72.2475Z" fill="url(#fdf281ef-26f5-42a8-abf6-b4b69985ddae)"></path><path d="M152.876,82.38c-6.88,8.6479-5.9648,28.338.093,35.4009-6.3547-4.9242-10.2085-11.2128-10.1826-17.6124C142.812,93.8488,146.6231,87.4568,152.876,82.38Z" fill="url(#a041448d-120b-41fa-bd46-daa7677d1456)"></path><path d="M177.4715,73.48c-1.7237-17.3948,5.9838-22.0006,15.6562-23.16s12.6009,5.9971,13.0347,8.6774C207.3537,66.36,200.7828,74.4639,177.4715,73.48Z" fill="#e5f3fe"></path><path d="M177.6959,73.4931c-2.5421-17.3209-12.2544-20.0081-23.26-18.8854S142.18,63.3654,142.2239,66.08,148.2128,82.9115,177.6959,73.4931Z" fill="#e5f3fe"></path><path d="M201.2375,89.9761c-1.7212.2865-2.5231,2.76-2.0313,5.2475s1.4338,5.2083,3.7339,4.9957,2.3676-2.73,2.2934-4.33S203.8177,89.5466,201.2375,89.9761Z" fill="#0d2640"></path><path d="M215.79,89.2033c-1.5651.2606-2.2944,2.51-1.8471,4.7718s1.3038,4.7361,3.3953,4.5428,2.153-2.4821,2.0855-3.9376S218.1366,88.8128,215.79,89.2033Z" fill="#0d2640"></path><path d="M163.7461,172.9887a2,2,0,0,1-.36-3.9673,61.1568,61.1568,0,0,1,6.1475-.8178,2,2,0,0,1,.32,3.9873,57.1585,57.1585,0,0,0-5.7432.7641A2.01,2.01,0,0,1,163.7461,172.9887Z" fill="url(#b70e37bb-1281-4b2a-82f4-7df1b034c24a)"></path><path d="M257.375,202.6494c-.0215,0-.0439-.0005-.0654-.001A58.7,58.7,0,0,1,245.2539,201a2,2,0,0,1,.9414-3.8877,54.6982,54.6982,0,0,0,11.2432,1.5376,2,2,0,0,1-.0635,3.9991Zm11.7451-.7857a2,2,0,0,1-.3183-3.9746,74.5036,74.5036,0,0,0,11.1367-2.7476,2,2,0,0,1,1.2422,3.8028,78.565,78.565,0,0,1-11.7383,2.893A2.0081,2.0081,0,0,1,269.12,201.8637Zm-34.54-4.5957a1.9879,1.9879,0,0,1-.793-.165,115.0106,115.0106,0,0,1-10.71-5.3858,2,2,0,0,1,1.9571-3.4883,111.5033,111.5033,0,0,0,10.3408,5.2032,2,2,0,0,1-.7949,3.8359ZM213.8809,186.01a1.9954,1.9954,0,0,1-1.0206-.2812c-3.0322-1.8033-6.5693-3.8838-10.16-5.7579a2,2,0,1,1,1.85-3.5459c3.6826,1.9209,7.2764,4.0347,10.3555,5.8653a2.0007,2.0007,0,0,1-1.0244,3.72Zm-21.0137-10.6045a1.9922,1.9922,0,0,1-.6748-.1177,55.2954,55.2954,0,0,0-11.0156-2.7695,2,2,0,0,1,.5605-3.9609,59.285,59.285,0,0,1,11.8047,2.9648,2,2,0,0,1-.6748,3.8833Z" fill="url(#bfea329e-50f9-4c26-87b4-a0cc20e101a0)"></path><path d="M291.5791,194.68a2,2,0,0,1-.8389-3.8164c1.7412-.8037,3.5254-1.6807,5.3028-2.6059a2,2,0,1,1,1.8476,3.5478c-1.834.9546-3.6758,1.8594-5.4746,2.69A1.9914,1.9914,0,0,1,291.5791,194.68Z" fill="url(#a37a0010-0419-4f3a-9b87-e394e71cc3f1)"></path><g id="fe5e120f-4c70-4569-ac80-b7f4e62d4c6d" data-name="Layer 2"><g id="f22b56d3-ac99-48e2-b2d6-ed9b8ef218d4" data-name="Layer 1-2"><g id="a2cd47c8-fa6f-4cfc-9c0a-0a8885e4b298" data-name="img content delivery file video dblue"><path d="M108.48,204.7683,79.397,224.8834a1.9585,1.9585,0,0,1-2.7234-.4948L49.6872,185.3709a1.959,1.959,0,0,1,.4967-2.7248L72.76,167.0317a1.959,1.959,0,0,1,1.4656-.3162l5.5048,1.0024,5.5029,1.0048a1.9582,1.9582,0,0,1,1.26.8126l22.4855,32.51A1.958,1.958,0,0,1,108.48,204.7683Z" fill="url(#b1fa993d-e31d-45fb-ba19-c2e837a03200)"></path><path d="M79.73,167.7179l-5.5048-1.0024a1.959,1.959,0,0,0-1.4656.3162l4.9081,7.0964a1.2422,1.2422,0,0,0,1.7279.3146l7.0963-4.9081a1.9577,1.9577,0,0,0-1.26-.8127Z" fill="#0c227b"></path></g></g><path d="M77.2325,190.5088c-2.0339,1.3883-2.1451,3.2313-1.59,4.0449a1.0461,1.0461,0,0,0,1.49.2419c.8135-.5553-.31-1.4893,1.2268-2.5382.7533-.5142,1.5822-.594,2.0553.0991.5554.8137.0306,1.8566-.1786,2.6179a3.34,3.34,0,0,0,.5539,2.9793c.5349.7835.9.8656,1.5177.4439.7382-.5038.6626-.9381.4672-1.2244a2.2914,2.2914,0,0,1-.442-2.4594c.1908-.5941.772-2.4928-.1948-3.9092S79.1609,189.1926,77.2325,190.5088Z" fill="#0b82e3"></path><path d="M83.0328,199.4271a1.4049,1.4049,0,0,0,1.584,2.32,1.4048,1.4048,0,0,0-1.584-2.32Z" fill="#0b82e3"></path><path d="M84.417,182.9316l-9.066.6887a4.3288,4.3288,0,0,0-3.562,2.4314l-3.9444,8.192a4.3293,4.3293,0,0,0,.3243,4.3071l5.1176,7.4974a4.3294,4.3294,0,0,0,3.8929,1.8712l9.066-.6888a4.3287,4.3287,0,0,0,3.5621-2.4314l3.9443-8.1919a4.3294,4.3294,0,0,0-.3243-4.3072L88.31,184.8027A4.3292,4.3292,0,0,0,84.417,182.9316ZM91.6987,193.48a2.23,2.23,0,0,1,.167,2.2186l-3.9444,8.192a2.23,2.23,0,0,1-1.8347,1.2524l-9.066.6887a2.23,2.23,0,0,1-2.0053-.9638l-5.1176-7.4974a2.23,2.23,0,0,1-.167-2.2186l3.9444-8.192a2.23,2.23,0,0,1,1.8347-1.2524l9.066-.6887a2.23,2.23,0,0,1,2.0053.9638l5.1176,7.4974Z" fill="#0b82e3"></path></g><path d="M165.6016,171.7622c.0559,13.8407-18.009,27.1763-40.3592,27.2666-36.0135.1455-40.5224-13.0988-40.5783-26.94s12.51-28.1752,40.3551-28.2877C147.37,143.7112,165.5457,157.9214,165.6016,171.7622Z" fill="url(#fb71cfa7-5d7f-46f2-9c4b-c5312930729a)"></path><path d="M165.192,175.4224c-19.1066,9.2554-38.2974,11.7337-59.3183,7.4445-10.4375-2.13-17.2693-7.4851-21.0312-13.6637a22.7775,22.7775,0,0,0-.1785,2.886c.0561,13.8408,4.5648,27.085,40.5783,26.94C145.6109,198.9466,162.4136,187.863,165.192,175.4224Z" fill="url(#a5f4601b-8d60-49c0-9343-4cd160bc870d)"></path><path d="M137.9614,197.4948a50.7052,50.7052,0,0,0,8.645-2.9175c10.3744-12.8906,8.9046-37.6677-1.7064-46.8732a50.1893,50.1893,0,0,0-11.3048-3.222C148.8578,155.4927,147.2226,182.9705,137.9614,197.4948Z" fill="url(#b172c0f8-65c5-479c-95b8-10ab8c37b459)"></path><path d="M125.9668,143.8414s-.03-.0109-.0775-.0261c-.29-.0037-.5782-.015-.87-.0139-2.5232.01-4.9171.1407-7.1914.3735,10.02,10.9524,16.2894,40.9143-.348,54.6455,2.4155.1421,4.9847.22,7.7625.2084q1.0358-.0043,2.0585-.0464C143.0612,181.75,136.2328,151.5516,125.9668,143.8414Z" fill="url(#e88786ca-8a1c-4b2d-a948-87b14716ce0a)"></path><path d="M155.5119,153.9737c6.88,8.6479,5.9649,28.338-.0929,35.4009,6.3547-4.9243,10.2085-11.2128,10.1826-17.6124C165.576,165.4427,161.7649,159.0507,155.5119,153.9737Z" fill="url(#b8b4222b-e520-441b-b897-f61347640dd2)"></path><path d="M130.9165,145.0743c1.7237-17.3949-5.9838-22.0006-15.6562-23.16s-12.6009,5.9971-13.0347,8.6774C101.0343,137.9534,107.6052,146.0577,130.9165,145.0743Z" fill="#e5f3fe"></path><path d="M130.6921,145.087c2.5421-17.3209,12.2544-20.0081,23.26-18.8854s12.2554,8.7577,12.2118,11.4725S160.1752,154.5054,130.6921,145.087Z" fill="#e5f3fe"></path><path d="M107.1505,161.57c1.7212.2865,2.5231,2.76,2.0313,5.2475s-1.4338,5.2083-3.7339,4.9957-2.3677-2.73-2.2934-4.33S104.57,161.1405,107.1505,161.57Z" fill="#0d2640"></path><path d="M92.5977,160.7972c1.5651.2606,2.2944,2.51,1.8471,4.7717s-1.3038,4.7362-3.3953,4.5429-2.153-2.4821-2.0855-3.9376S90.2514,160.4067,92.5977,160.7972Z" fill="#0d2640"></path><circle cx="80.1429" cy="67.547" r="37.9919" fill="#c5e5fc"></circle><path d="M89.7588,72.0048a9.8822,9.8822,0,0,1-19.2774,2.68l4.68-1.28A4.8062,4.8062,0,0,0,79.92,77.0038a4.9076,4.9076,0,0,0,4.919-4.999,4.8545,4.8545,0,0,0-4.959-5.039,5.4913,5.4913,0,0,0-2.48.68l-2.1992-3.7993L83.48,56.7675H71.6016v-4.56H89.2783v4.56L82.8,63.0063C87.1992,63.9262,89.7588,67.6454,89.7588,72.0048Z" fill="#163351"></path></g></g></svg> 