<?xml version="1.0" encoding="UTF-8"?> <!-- Generator: Adobe Illustrator 24.2.3, SVG Export Plug-In . SVG Version: 6.00 Build 0) --> <svg xmlns="http://www.w3.org/2000/svg" xmlns:xlink="http://www.w3.org/1999/xlink" version="1.1" id="Layer_1" x="0px" y="0px" viewBox="0 0 313.8 273.6" style="enable-background:new 0 0 313.8 273.6;" xml:space="preserve"> <style type="text/css"> .st0{fill:none;} .st1{fill:#87CAFA;} .st2{clip-path:url(#SVGID_2_);} .st3{fill:#F9C900;} .st4{fill:#C5E5FC;} .st5{fill:#F7B391;} .st6{opacity:0.65;fill:url(#SVGID_3_);enable-background:new ;} .st7{fill:#F9BFA3;} .st8{opacity:0.65;fill:url(#SVGID_4_);enable-background:new ;} .st9{fill:url(#SVGID_5_);} .st10{opacity:0.65;fill:url(#SVGID_6_);enable-background:new ;} .st11{fill:#0C154B;} .st12{fill:#E5F3FE;} .st13{opacity:0.65;fill:url(#SVGID_7_);enable-background:new ;} .st14{fill:url(#SVGID_8_);} .st15{fill:url(#SVGID_9_);} .st16{fill:url(#SVGID_10_);} .st17{fill:url(#SVGID_11_);} .st18{opacity:0.65;fill:url(#SVGID_12_);enable-background:new ;} .st19{fill:#F0F9FF;} .st20{opacity:0.65;fill:url(#SVGID_13_);enable-background:new ;} .st21{fill:#41A1ED;} .st22{fill:url(#SVGID_14_);} .st23{fill:#163351;} .st24{fill:url(#SVGID_15_);} .st25{clip-path:url(#SVGID_17_);} .st26{fill:#FFFFFF;} </style> <g id="eff4090f-5355-4e14-ba05-212a3f6faf8b"> <g id="a9b31a03-2a77-4bed-af65-a7d36b1db345"> <g id="a36eae5a-b127-4578-9a07-edb3c65fecf0"> <g id="beed1be1-f28e-4b82-b523-5ff1a42c7f6f"> <rect class="st0" width="313.8" height="272.3"></rect> <path class="st1" d="M49.2,106.2l67.4-76.6c7.1-8.1,18.7-10.4,28.4-5.7l98.7,47.8c6.6,3.2,11.4,9.2,12.9,16.4l20.9,94 c2.5,11.4-3.5,22.9-14.2,27.3l-105.7,43.8c-6.5,2.7-13.9,2.4-20.2-0.9l-81.2-41.9c-8-4.1-13-12.3-13-21.3V122 C43.3,116.2,45.4,110.6,49.2,106.2z"></path> <g> <defs> <path id="SVGID_1_" d="M49.2,106.2l67.4-76.6c7.1-8.1,18.7-10.4,28.4-5.7l98.7,47.8c6.6,3.2,11.4,9.2,12.9,16.4l20.9,94 c2.5,11.4-3.5,22.9-14.2,27.3l-105.7,43.8c-6.5,2.7-13.9,2.4-20.2-0.9l-81.2-41.9c-8-4.1-13-12.3-13-21.3V122 C43.3,116.2,45.4,110.6,49.2,106.2z"></path> </defs> <clipPath id="SVGID_2_"> <use xlink:href="#SVGID_1_" style="overflow:visible;"></use> </clipPath> <g class="st2"> <circle class="st1" cx="123.6" cy="150.6" r="101.5"></circle> <path class="st3" d="M90.7,216.9c-12.6,0.3-25.1,2.7-36.9,7.3c38.4,36.5,98.4,37.3,137.8,1.8c-13.6-3.3-27.6-5.1-41.6-5.2 C137.5,220.8,90.7,216.9,90.7,216.9z"></path> <path class="st4" d="M124,197.6c13.4-0.1,26.9,2.7,27.5,3.8s-3.9,8.1-5.4,8.7s-43.2,1-44.5,0s-6.4-7.8-5.2-10.2s6.1-3,7.8-3 S124,197.6,124,197.6z"></path> <path class="st5" d="M100.3,171.9l1.3,35.5l29.8,18.7l5.8-1.3l7.5-13.5c0,0-0.8-18.9-3.7-23.9S100.3,171.9,100.3,171.9z"></path> <linearGradient id="SVGID_3_" gradientUnits="userSpaceOnUse" x1="119.4883" y1="920.8749" x2="123.7101" y2="900.047" gradientTransform="matrix(1 0 0 1 0 -716)"> <stop offset="0" style="stop-color:#F7B391"></stop> <stop offset="1" style="stop-color:#F3A078"></stop> </linearGradient> <path class="st6" d="M144,203c-0.5-5.7-1.5-12.8-3.1-15.6c-0.6-1.1-2.8-2.4-5.9-3.8l-34.5-4.2l0.1,4 c2.8,6.1,5.6,10.7,10.3,12.7c5.7,2.4,10.3,5.7,23.8,6.9C137.8,203.1,140.9,203.2,144,203z"></path> <path class="st7" d="M112.2,83.8c-8.4,4.2-23.6,11.5-24.8,20.3s-1.7,39.4,0,42.8s5.1,19.6,7.4,23.8c2.4,4.4,9.3,14.1,15.7,18 c6.1,3.7,14.2,3.5,23.6,3.5c10.3,0,15.7-2.9,18.3-4.4c1.8-1,3.7-12.4,4.8-17.2s7.9-14.1,7.9-21.1s-3.3-40.2-4.9-48.1 s5.5-3.4-1-8.5S112.2,83.8,112.2,83.8z"></path> <linearGradient id="SVGID_4_" gradientUnits="userSpaceOnUse" x1="124.0695" y1="834.5143" x2="124.8787" y2="822.4574" gradientTransform="matrix(1 0 0 1 0 -716)"> <stop offset="0" style="stop-color:#F7B391"></stop> <stop offset="1" style="stop-color:#F3A078"></stop> </linearGradient> <path class="st8" d="M160.3,101.3c0-0.3-0.1-0.5-0.1-0.7l-12.8-5.8l-54.2,4.6c0,0-6.6,2.4-3.6,5.9s17.2,11.2,28.3,10.3 s9.4-10.3,19-11.4c11.8-1.3,18.3-0.6,24.4,3.3C160.9,104.8,160.5,102.7,160.3,101.3z"></path> <linearGradient id="SVGID_5_" gradientUnits="userSpaceOnUse" x1="118.763" y1="788.539" x2="129.3177" y2="852.7113" gradientTransform="matrix(1 0 0 1 0 -716)"> <stop offset="0" style="stop-color:#A65000"></stop> <stop offset="1" style="stop-color:#7E3200"></stop> </linearGradient> <path class="st9" d="M86.9,144.3c2.2,0.4,3,0.7,3.6,0c1.6-1.7,0.7-42,0.7-42s6.5,7.7,22.2,8.6s13.5-11.2,23.8-11.5 s20.9,2.4,23.7,6.4c5.1-2.8,9.5-10.9,10.9-15.5c1.1-3.4-7.7-14.2-24.5-19s-34.8-1.8-43.9,2s-24.8,12-26.6,16.9 c-2.5,6.6-2.8,17.2-2,22.5s5.3,24.1,6.1,25.2S85.5,144.1,86.9,144.3z"></path> <linearGradient id="SVGID_6_" gradientUnits="userSpaceOnUse" x1="132.7012" y1="880.1885" x2="130.731" y2="850.6355" gradientTransform="matrix(1 0 0 1 0 -716)"> <stop offset="0" style="stop-color:#F7B391"></stop> <stop offset="1" style="stop-color:#F3A078"></stop> </linearGradient> <path class="st10" d="M103,150.6c1.6,8.4,6.2,11.2,9.5,12.3c2.4,0.9,8.5,1.8,11.4-0.7c4.7-4.1,6.3-8,6.9-11.5s2.3-7.7,7.9-8.1 c2.3-0.1,6.2,0.8,6,3.2c-0.1,2.3,0.2,4.6,1.1,6.7c0.5,1.2,2.5,5.8,5.1,8.1c2.1,2,4.9,3.1,7.8,3.1c1.3-0.2,2.3-1,2.7-2.2 c0.4-0.7-4.4-15.5-4.4-15.5l-9.9-2.9l-3.8-2l-5.2-0.9l-5.9,2.3L103,150.6z"></path> <path class="st11" d="M146.4,145c-0.3-0.3-2.9-3.4-6.6-3.8c-2.9-0.3-5.4,1.3-7.4,2.5c-0.4,0.2-0.8,0.5-1.1,0.7l-1.2-2 c0.3-0.2,0.7-0.4,1.1-0.7c2.2-1.4,5.1-3.2,8.8-2.9c4.5,0.4,7.6,3.9,8.2,4.6L146.4,145z"></path> <path class="st11" d="M103.5,140.6c-7-0.3-18.6-0.4-20.8-0.4l0-2.3c2.4,0,13.8,0.2,20.9,0.4L103.5,140.6z"></path> <path class="st12" d="M160.4,120c8.3,0.7,12.5,8.9,11.9,21.1c-0.2,4.2-3.5,19.3-13.9,18.8c-7.1-0.4-13.7-7.5-13-21.1 C146,126.1,154.1,119.5,160.4,120z"></path> <path class="st11" d="M158.9,161.1c-0.2,0-0.4,0-0.6,0c-7.3-0.4-14.9-7.5-14.2-22.3c0.3-6.9,2.9-12.7,7.1-16.4 c2.5-2.3,5.8-3.6,9.3-3.5l0,0c8.7,0.7,13.6,9.3,12.9,22.3C173.3,145.2,170,161.1,158.9,161.1z M159.8,121.2 c-2.6,0.1-5,1.2-6.9,2.9c-2.2,1.9-5.9,6.4-6.3,14.8c-0.7,13.2,5.7,19.5,11.9,19.9c9.7,0.5,12.5-14.7,12.7-17.7 c0.6-11.8-3.4-19.3-10.8-19.9l0,0C160.2,121.2,160,121.2,159.8,121.2z"></path> <path class="st12" d="M118.1,120c8.4,0.3,13.8,7.7,13.8,20.2c0,6.1-2.6,13.8-6.6,17.3s-9.3,2.9-11.9,2.3 c-3.8-0.9-11.4-6-11.2-19.8C102.4,124.9,111.7,119.8,118.1,120z"></path> <path class="st11" d="M117.3,161.4c-1.4,0-2.8-0.2-4.1-0.5c-4.3-1-12.3-6.6-12.1-21c0.1-9,3.4-14.1,6.2-16.7 c2.9-2.9,6.8-4.4,10.9-4.4l0,0c9.2,0.3,14.9,8.5,15,21.3c0,5.8-2.4,14.2-7,18.2C123.7,160.4,120.6,161.4,117.3,161.4z M117.7,121.1c-3.3,0.1-6.5,1.4-8.9,3.7c-3.5,3.3-5.4,8.6-5.4,15.1c-0.1,12.9,6.7,17.9,10.3,18.7c2,0.5,7.2,1.2,10.9-2.1 c3.5-3.1,6.2-10.3,6.2-16.4c0-11.6-4.8-18.7-12.7-19C118,121.1,117.9,121.1,117.7,121.1L117.7,121.1z"></path> <path class="st7" d="M87.6,145.2c-1.4-3.9-4.2-9.4-7-9.9c-2.4-0.3-4.7,0.7-6,2.7c-0.6,1.3-1.1,2.4-1.1,6.3 c0,2.4,1.5,8.3,4.3,10.7c2.4,2,5.6,3.2,7.6,3.1s6.7-1.5,6.6-2.4S87.6,145.2,87.6,145.2z"></path> <linearGradient id="SVGID_7_" gradientUnits="userSpaceOnUse" x1="135.5329" y1="870.0285" x2="149.465" y2="875.728" gradientTransform="matrix(1 0 0 1 0 -716)"> <stop offset="0" style="stop-color:#F7B391"></stop> <stop offset="1" style="stop-color:#EF956A"></stop> </linearGradient> <path class="st13" d="M144.1,157.9c0.2-0.8,0.1-1.7-0.3-2.4c-0.1-0.2-3.5-5.3-2.7-6.1c0.3-0.3,0.6,0.1,0.8,0.4 c2.6,4.5,5.8,6,5.8,7.5c-0.3,3.2-3,5.7-6.3,5.6c-2.6,0-2.8-0.6-2.8-0.9c0.1-0.5,0.4-0.8,0.9-0.9 C142.9,160.6,143.9,159.1,144.1,157.9z"></path> <linearGradient id="SVGID_8_" gradientUnits="userSpaceOnUse" x1="152.5605" y1="947.015" x2="146.8508" y2="931.9833" gradientTransform="matrix(1 0 0 1 0 -716)"> <stop offset="0" style="stop-color:#F9C900"></stop> <stop offset="1" style="stop-color:#EA9F00"></stop> </linearGradient> <path class="st14" d="M157.4,223.6c-7.6,8.9-10,7.3-10.9,7.1c-1.8-0.8-3.5-1.7-5.1-2.7l11.9-13.1c0,0,5.6,4.6,5.3,6 C158.3,221.8,158,222.7,157.4,223.6z"></path> <linearGradient id="SVGID_9_" gradientUnits="userSpaceOnUse" x1="100.9054" y1="951.1332" x2="113.1488" y2="918.8359" gradientTransform="matrix(1 0 0 1 0 -716)"> <stop offset="0" style="stop-color:#F9C900"></stop> <stop offset="1" style="stop-color:#EA9F00"></stop> </linearGradient> <path class="st15" d="M121.4,227.6c-1,4.3-2.5,6-4.3,6s-15.4-7.2-18.5-11.5s-6.8-9.4-6.6-10.6s27.3,13.9,27.3,13.9 L121.4,227.6"></path> <linearGradient id="SVGID_10_" gradientUnits="userSpaceOnUse" x1="179.977" y1="973.0174" x2="118.187" y2="954.8159" gradientTransform="matrix(1 0 0 1 0 -716)"> <stop offset="5.700000e-03" style="stop-color:#F9C900"></stop> <stop offset="1" style="stop-color:#EA9F00"></stop> </linearGradient> <path class="st16" d="M173.3,239.1c-1.7-4.6-5.7-8-10.5-9c-15.2-2.9-30.2-6.6-45-11.2c-14.1-1-27.1-2.1-27.1-2.1 c-12.6,0.3-25.1,2.7-36.9,7.3c18.2,17.3,42.4,35.3,69.5,35.3C141.3,259.5,158.6,247.4,173.3,239.1z"></path> <linearGradient id="SVGID_11_" gradientUnits="userSpaceOnUse" x1="134.08" y1="925.949" x2="121.5876" y2="985.9732" gradientTransform="matrix(1 0 0 1 0 -716)"> <stop offset="0" style="stop-color:#C5E5FC"></stop> <stop offset="1" style="stop-color:#87CAFA"></stop> </linearGradient> <path class="st17" d="M127.1,212.2c0.8,0.6,4.9,11,5.8,11s1.9-5.9,2.1-6.9c1.1-2.2,2.4-4.3,4.1-6.1c0.8-0.6,4.6-0.8,5,0.9 s3.3,11.1,2.4,12.2s-11.4,11.3-13.3,11.3c-2.9,0-10.6-4.6-15.6-10.9S127.1,212.2,127.1,212.2z"></path> <linearGradient id="SVGID_12_" gradientUnits="userSpaceOnUse" x1="123.014" y1="936.4324" x2="123.2488" y2="928.3989" gradientTransform="matrix(1 0 0 1 0 -716)"> <stop offset="0" style="stop-color:#87CAFA"></stop> <stop offset="1" style="stop-color:#64B5F3"></stop> </linearGradient> <path class="st18" d="M127.1,212.2c-2.4,5.2-5.7,15.4-5.7,15.4s-0.7-0.6-2.1-2.1S124.5,211.9,127.1,212.2z"></path> <path class="st19" d="M97.4,198.7c-2.4,1-3.8,3.7-4.2,4.4s-3.4,7-3.2,8s6.3,6.8,8.7,8.7s13.9,9.3,15.6,9.9 c1.3,0.3,2.6-0.2,3.4-1.3c0.4-0.4,7.7-16,9.3-16.1c-3.6-1.4-10.6-2.8-14-3.8c-3.9-1.2-11.6-4.1-13.5-6.4 C98.8,201,98,199.9,97.4,198.7z"></path> <linearGradient id="SVGID_13_" gradientUnits="userSpaceOnUse" x1="137.9797" y1="935.3189" x2="149.9985" y2="935.3189" gradientTransform="matrix(1 0 0 1 0 -716)"> <stop offset="0" style="stop-color:#87CAFA"></stop> <stop offset="1" style="stop-color:#64B5F3"></stop> </linearGradient> <path class="st20" d="M141.5,228.1c-5.4-4.4-3.2-17.8-2.5-17.5s11,6.6,11,6.6l-4.4,7L141.5,228.1z"></path> <path class="st19" d="M151.5,201.4c-1.4,1.9-3.1,3.6-5,5c-1.5,1.1-7.7,3.2-7.5,4.2s7.4,16.5,8.9,16.5s10.6-6.6,10.8-7.5 s-1.2-6.7-2.5-9.6C154.8,206.7,152,201.4,151.5,201.4z"></path> <path class="st21" d="M139.3,225c0.5,1.2,1.2,2.3,2.2,3.1l2.1-2C142.3,225.7,140.8,225.3,139.3,225z"></path> <linearGradient id="SVGID_14_" gradientUnits="userSpaceOnUse" x1="209.5777" y1="203.8868" x2="208.8862" y2="244.682"> <stop offset="0" style="stop-color:#4E7294"></stop> <stop offset="1" style="stop-color:#234465"></stop> </linearGradient> <path class="st22" d="M285.3,200.6H137.3c-2.2,0-4.1,1.8-4.3,4l-3.8,54.8h155.9l3.8-54.8c0-0.1,0-0.2,0-0.4 C289,202.2,287.3,200.6,285.3,200.6z"></path> </g> </g> <circle class="st4" cx="81.2" cy="67.3" r="38"></circle> <path class="st23" d="M79.7,57.2l-5.4,3.3v-5.3l5.4-3.2h4.9v28.8h-4.9V57.2z"></path> <linearGradient id="SVGID_15_" gradientUnits="userSpaceOnUse" x1="221.568" y1="829.0584" x2="219.2679" y2="921.3917" gradientTransform="matrix(1 0 0 1 0 -716)"> <stop offset="7.000000e-04" style="stop-color:#F0F9FF"></stop> <stop offset="1" style="stop-color:#C5E5FC"></stop> </linearGradient> <path class="st24" d="M250.9,151.2c0-16.7-13.6-30.3-30.3-30.3s-30.3,13.6-30.3,30.3c0,14.7,10.5,27.3,25,29.9l3.7,6.5 c0.5,0.9,1.7,1.2,2.5,0.7c0.3-0.2,0.5-0.4,0.7-0.7l3.7-6.5C240.4,178.5,250.9,165.9,250.9,151.2z"></path> <rect x="202.3" y="132.8" class="st0" width="36.5" height="36.5"></rect> <g> <defs> <rect id="SVGID_16_" x="201.7" y="132.2" width="36.2" height="36.2"></rect> </defs> <clipPath id="SVGID_17_"> <use xlink:href="#SVGID_16_" style="overflow:visible;"></use> </clipPath> <g class="st25"> <path class="st3" d="M205.1,147.3c-0.2,10.7,9.1,14.6,20.3,14.6c5.2,0,9.4-4.2,9.3-9.4c0-5.2-4.2-9.3-9.3-9.3 C220.2,143.2,205.2,143,205.1,147.3z"></path> <path class="st23" d="M227.2,152.7c1.4,0,2.6-1.2,2.6-2.6c0-1.4-1.2-2.6-2.6-2.6c-1.4,0-2.6,1.2-2.6,2.6l0,0 C224.6,151.6,225.7,152.7,227.2,152.7L227.2,152.7z"></path> <path class="st26" d="M226.5,150.3c0.5,0,0.8-0.4,0.8-0.8s-0.4-0.8-0.8-0.8c-0.5,0-0.8,0.4-0.8,0.8 C225.7,150,226,150.3,226.5,150.3L226.5,150.3z"></path> <path class="st26" d="M224.7,143.3l-12.2,10.4c-2.4,2.2-6.2,2.1-8.5-0.4c-2.2-2.4-2.1-6.2,0.4-8.5c1.2-1.1,2.8-1.7,4.4-1.6 L224.7,143.3z"></path> <path class="st23" d="M236.3,138.9c-0.9-0.2-1.9,0.2-2.3,1c-2.2,0.3-4.3,1.4-5.8,3c-0.3-0.1-0.7-0.2-1-0.2 c0.4-1.3,1.1-2.4,2-3.3c0.5,0.2,1,0.2,1.4,0c1.1-0.4,1.6-1.6,1.2-2.6c-0.4-1.1-1.6-1.6-2.6-1.2c-0.9,0.3-1.4,1.3-1.3,2.2 c-1.4,1.3-2.4,3-2.8,4.8h-1.2c-0.9,0-2,0-3.2,0l-12,0h-0.4c-3.6,0-6.6,3-6.6,6.6c0,3.1,2.1,5.7,5.1,6.4l-3.2,5.4l6.6-2.2 c3.9,2.6,9.5,3.7,15.5,3.7c5.5,0,9.9-4.4,9.9-9.9c0-3.7-2-7.1-5.3-8.8c1.1-0.9,2.4-1.6,3.8-1.8c0.3,0.4,0.7,0.7,1.2,0.8 c1.1,0.3,2.2-0.4,2.5-1.4l0,0C238.1,140.3,237.4,139.2,236.3,138.9z M203.8,149c0.1-2.4,2.1-4.3,4.5-4.3h0.3l12,0.1l-9.2,7.8 l0,0l-0.1,0c-0.8,0.8-1.9,1.2-3.1,1.2h-0.2C205.6,153.6,203.7,151.5,203.8,149z M209.6,155.7c1.2-0.2,2.3-0.8,3.2-1.6l0.4-0.4 c0,1.7,0.4,3.3,1.1,4.9C212.6,158,211,157,209.6,155.7z M217.1,159.5c-1.6-2.8-2.2-5.4-1.6-7.7l3.2-2.7 c-0.5,1.2-0.7,2.4-0.7,3.7c0,2.7,1.1,5.4,2.9,7.4C219.7,160,218.4,159.8,217.1,159.5z M224.9,144.7h0.8c4.3,0,7.8,3.5,7.8,7.9 c0,4.3-3.5,7.8-7.8,7.8c-0.5,0-1.1,0-1.6,0c-2.7-2.4-4.1-4.9-4-7.5c0-4.6,4.1-8,4.1-8.1L224.9,144.7z"></path> </g> </g> </g> </g> </g> </g> </svg> 