<?xml version="1.0" encoding="UTF-8"?> <svg xmlns="http://www.w3.org/2000/svg" width="96" height="96" viewBox="0 0 96 96" fill="none"><path d="M34.1414 53.745C46.9221 53.745 57.2829 43.477 57.2829 30.8109C57.2829 18.1447 46.9221 7.87671 34.1414 7.87671C21.3608 7.87671 11 18.1447 11 30.8109C11 43.477 21.3608 53.745 34.1414 53.745Z" fill="#015CBE"></path><path d="M34.1414 38.6401C32.7051 38.6401 31.5879 39.7473 31.5879 41.1708C31.5879 42.5943 32.7051 43.7015 34.1414 43.7015C35.5778 43.7015 36.695 42.5943 36.695 41.1708C36.695 39.8264 35.5778 38.6401 34.1414 38.6401Z" fill="#0C227B"></path><path d="M34.1415 18.3157C28.8748 18.3157 23.9273 20.0555 19.8576 23.2188C19.4587 23.5352 19.4587 24.0097 19.698 24.4051L20.895 25.9077C21.2142 26.3031 21.693 26.3031 22.092 26.0658C25.5233 23.377 29.8324 21.7163 34.5405 21.7163C39.0092 21.7163 43.1587 23.2188 46.5102 25.6704C46.9092 25.9077 47.388 25.9077 47.7072 25.5123L48.5849 24.4842C48.9041 24.0888 48.8243 23.6143 48.4253 23.2979C44.3556 19.9764 39.4082 18.3157 34.1415 18.3157Z" fill="#0C227B"></path><path d="M34.1414 25.1169C30.3909 25.1169 26.9596 26.3032 24.0071 28.5966C23.6081 28.9129 23.6081 29.3874 23.8475 29.7829L25.0444 31.2854C25.3636 31.6809 25.9222 31.6809 26.2414 31.3645C28.4757 29.5456 31.3485 28.5175 34.4606 28.5175C37.3333 28.5175 40.0465 29.4665 42.201 31.0482C42.6 31.2854 43.0788 31.2064 43.398 30.89L44.2758 29.8619C44.5949 29.4665 44.5151 28.992 44.1162 28.6757C41.403 26.3032 37.8919 25.1169 34.1414 25.1169Z" fill="#0C227B"></path><path d="M28.3162 33.8951C27.997 34.2114 27.9172 34.6859 28.2364 35.0813L29.4334 36.5839C29.7526 36.9793 30.2314 37.0584 30.6303 36.7421C31.7475 35.8721 33.1041 35.3186 34.7 35.3186C36.0566 35.3186 37.2536 35.714 38.291 36.4257C38.6101 36.663 39.1687 36.5839 39.4081 36.1885L40.2859 35.0813C40.6051 34.765 40.5253 34.2114 40.2061 33.8951C36.695 31.2853 31.5879 31.2853 28.3162 33.8951Z" fill="#0C227B"></path><path d="M66.8585 70.6688C79.6391 70.6688 89.9999 60.4009 89.9999 47.7347C89.9999 35.0685 79.6391 24.8005 66.8585 24.8005C54.0778 24.8005 43.717 35.0685 43.717 47.7347C43.717 60.4009 54.0778 70.6688 66.8585 70.6688Z" fill="#0B82E3"></path><path d="M66.8585 55.5641C65.4221 55.5641 64.3049 56.6713 64.3049 58.0948C64.3049 59.5183 65.4221 60.6254 66.8585 60.6254C68.2948 60.6254 69.412 59.5183 69.412 58.0948C69.412 56.6713 68.2948 55.5641 66.8585 55.5641Z" fill="#0C227B"></path><path d="M66.8585 35.1606C61.5919 35.1606 56.6444 36.9005 52.5747 40.0638C52.1757 40.3801 52.1757 40.8546 52.4151 41.2501L53.6121 42.7526C53.9312 43.1481 54.41 43.1481 54.809 42.9108C58.2403 40.222 62.5494 38.5612 67.2575 38.5612C71.7262 38.5612 75.8757 40.0638 79.2272 42.5154C79.6262 42.7526 80.105 42.7526 80.4242 42.3572L81.302 41.3291C81.6212 40.9337 81.5414 40.4592 81.1424 40.1429C76.9929 36.9005 72.1252 35.1606 66.8585 35.1606Z" fill="#0C227B"></path><path d="M66.8584 41.9619C63.1079 41.9619 59.6766 43.1482 56.7241 45.4416C56.3251 45.7579 56.3251 46.2324 56.5645 46.6278L57.7615 48.1304C58.0807 48.5258 58.6392 48.5258 58.9584 48.2095C61.1928 46.3906 64.0655 45.3625 67.1776 45.3625C70.0504 45.3625 72.7635 46.3115 74.918 47.8932C75.317 48.1304 75.7958 48.0513 76.115 47.735L76.9928 46.7069C77.312 46.3115 77.2322 45.837 76.8332 45.5207C74.0403 43.1482 70.5292 41.9619 66.8584 41.9619Z" fill="#0C227B"></path><path d="M60.9534 50.819C60.6342 51.1353 60.5544 51.6098 60.8736 52.0052L62.0706 53.5078C62.3898 53.9032 62.8686 53.9823 63.2675 53.666C64.3847 52.7961 65.7413 52.2425 67.3372 52.2425C68.6938 52.2425 69.8908 52.6379 70.9282 53.3497C71.2474 53.5869 71.8059 53.5078 72.0453 53.1124L72.9231 52.0052C73.2423 51.6889 73.1625 51.1353 72.8433 50.819C69.412 48.1302 64.3049 48.1302 60.9534 50.819Z" fill="#0C227B"></path><path d="M34.1414 90.1232C46.9221 90.1232 57.2829 79.8552 57.2829 67.189C57.2829 54.5229 46.9221 44.2549 34.1414 44.2549C21.3608 44.2549 11 54.5229 11 67.189C11 79.8552 21.3608 90.1232 34.1414 90.1232Z" fill="#87CAFA"></path><path d="M34.1414 75.0182C32.7051 75.0182 31.5879 76.1254 31.5879 77.5489C31.5879 78.9724 32.7051 80.0795 34.1414 80.0795C35.5778 80.0795 36.695 78.9724 36.695 77.5489C36.695 76.1254 35.5778 75.0182 34.1414 75.0182Z" fill="#0C227B"></path><path d="M34.1415 54.6938C28.8748 54.6938 23.9273 56.4337 19.8576 59.597C19.4587 59.9133 19.4587 60.3878 19.698 60.7833L20.895 62.2858C21.2142 62.6813 21.693 62.6813 22.092 62.444C25.5233 59.7552 29.8324 58.0944 34.5405 58.0944C39.0092 58.0944 43.1587 59.597 46.5102 62.0486C46.9092 62.2858 47.388 62.2858 47.7072 61.8904L48.5849 60.8623C48.9041 60.4669 48.8243 59.9924 48.4253 59.6761C44.3556 56.3546 39.4082 54.6938 34.1415 54.6938Z" fill="#0C227B"></path><path d="M34.1414 61.4159C30.3909 61.4159 26.9596 62.6021 24.0071 64.8956C23.6081 65.2119 23.6081 65.6864 23.8475 66.0818L25.0444 67.5844C25.3636 67.9798 25.9222 67.9798 26.2414 67.6635C28.4757 65.8446 31.3485 64.8165 34.4606 64.8165C37.3333 64.8165 40.0465 65.7655 42.201 67.3471C42.6 67.5844 43.0788 67.5053 43.398 67.189L44.2758 66.1609C44.5949 65.7655 44.5151 65.291 44.1162 64.9746C41.403 62.6812 37.8919 61.4159 34.1414 61.4159Z" fill="#0C227B"></path><path d="M28.3162 70.2732C27.997 70.5895 27.9172 71.064 28.2364 71.4595L29.4334 72.962C29.7526 73.3575 30.2314 73.4365 30.6303 73.1202C31.7475 72.2503 33.1041 71.6967 34.7 71.6967C36.0566 71.6967 37.2536 72.0921 38.291 72.8039C38.6101 73.0411 39.1687 72.962 39.4081 72.5666L40.2859 71.4595C40.6051 71.1431 40.5253 70.5895 40.2061 70.2732C36.695 67.5844 31.5879 67.5844 28.3162 70.2732Z" fill="#0C227B"></path></svg> 