<?xml version="1.0" encoding="UTF-8"?> <svg xmlns="http://www.w3.org/2000/svg" width="96" height="96" viewBox="0 0 96 96" fill="none"><path d="M47.9594 10C31.979 10 19 22.9958 19 38.9968C19 47.3629 23.1371 54.9167 27.2741 61.9019C32.3035 70.5928 38.3063 78.634 45.2014 85.8629C46.6615 87.4061 49.1762 87.4061 50.7175 85.8629C56.8014 79.7711 62.2364 72.9483 66.779 65.6382C71.6462 57.7595 76.9189 48.6624 76.9189 39.0781C76.9189 22.9958 64.021 10 47.9594 10Z" fill="#0B82E3"></path><path d="M47.9596 50.0432C54.5005 50.0432 59.8029 44.7339 59.8029 38.1846C59.8029 31.6352 54.5005 26.3259 47.9596 26.3259C41.4187 26.3259 36.1162 31.6352 36.1162 38.1846C36.1162 44.7339 41.4187 50.0432 47.9596 50.0432Z" fill="#0C227B"></path></svg> 