<?xml version="1.0" encoding="UTF-8"?>
<svg id="Layer_1" data-name="Layer 1" xmlns="http://www.w3.org/2000/svg" viewBox="0 0 24 32.82">
  <defs>
    <style>
      .cls-1 {
        fill: #f9c900;
      }

      .cls-2 {
        fill: #f18f0f;
      }

      .cls-3 {
        fill: #34595f;
      }
    </style>
  </defs>
  <path class="cls-1" d="M23.7,22.24c-.27,1.18-.75,2.47-1.51,3.84,0,0-.01,.01-.02,.04-.15,.26-.31,.52-.48,.8,0,0,0,0-.01,0-.14,.24-.29,.46-.46,.7,0,0-.01,.03-.04,.06-.62,.94-1.41,2.02-1.99,2.45-.36,.31-.77,.55-1.2,.73,0,0-.03,.01-.08,.03-.04,.02-.07,.03-.11,.04l-.08,.37c-.09,.4-.37,.73-.75,.86-.3,.11-.69,.23-1.08,.3-1.01,.19-2.43,.34-4.15,.35-1.73-.01-3.15-.16-4.16-.35-.39-.07-.77-.19-1.08-.3-.38-.13-.66-.46-.75-.85l-.14-.64c-.29-.14-.56-.32-.81-.54-.58-.44-1.37-1.51-1.99-2.45-.03-.03-.04-.06-.04-.06-.17-.24-.32-.46-.46-.7,0,0,0,0,0,0-.17-.28-.33-.54-.48-.8-.02-.03-.02-.04-.02-.04-.77-1.37-1.24-2.66-1.51-3.84-.42-1.86-.34-3.47-.07-4.78,.38-1.8,1.13-3.01,1.43-3.44,.03-.05,.07-.1,.1-.15,.02-.02,.02-.03,.02-.03,.53-.65,1.42-1.12,2.49-1.32,.72,.54,3.95,.94,7.83,.94s6.99-.39,7.78-.91c1.01,.21,1.85,.67,2.35,1.29,0,0,0,.01,.01,.03,.04,.05,.08,.1,.11,.15,.3,.43,1.05,1.64,1.43,3.44,.27,1.31,.35,2.92-.07,4.78Z"/>
  <path class="cls-1" d="M19.87,12.55c-.79,.52-3.98,.91-7.78,.91s-7.11-.4-7.83-.94c.38-.07,.78-.11,1.19-.11h.92c1.51,.2,3.5,.33,5.68,.33s4.17-.13,5.68-.33h.81c.47,0,.91,.05,1.33,.14Z"/>
  <path class="cls-2" d="M12.5,11.14c-.14,.01-.28,.01-.42,.01s-.27,0-.41-.01h.83Z"/>
  <path class="cls-2" d="M20.06,12.3c0,.09-.07,.17-.19,.25-.79,.52-3.98,.91-7.78,.91s-7.11-.4-7.83-.94c-.1-.07-.15-.14-.15-.22,0-.02,0-.03,0-.04v-.35c.51,.2,1.28,.36,2.25,.5,1.51,.2,3.5,.33,5.68,.33s4.17-.13,5.68-.33c1.02-.14,1.82-.32,2.32-.52v.37s0,.02,0,.04Z"/>
  <path class="cls-1" d="M12.5,11.14c-.14,.01-.28,.01-.42,.01s-.27,0-.41-.01h.83Z"/>
  <path class="cls-1" d="M19.71,9.34c0,.19-.38,.36-1.03,.5,.13-.04,.25-.07,.36-.1-.76-.26-2.53-.47-4.74-.55-.31-.01-.64-.02-.97-.03-.18,0-.36-.01-.54-.01-.23-.01-.47-.01-.71-.01s-.48,0-.71,.01c-.18,0-.36,.01-.54,.01-2.67,.05-4.84,.28-5.72,.58-.42-.12-.65-.25-.65-.4,0-.12,.15-.23,.43-.33h14.4c.27,.1,.42,.21,.42,.33Z"/>
  <path class="cls-1" d="M12.5,11.14c-.14,.01-.28,.01-.42,.01s-.27,0-.41-.01h.83Z"/>
  <path class="cls-3" d="M19.71,9.34c0,.19-.38,.36-1.03,.5,.13-.04,.25-.07,.36-.1-.76-.26-2.53-.47-4.74-.55-.31-.01-.64-.02-.97-.03-.18,0-.36-.01-.54-.01-.23-.01-.47-.01-.71-.01s-.48,0-.71,.01c-.18,0-.36,.01-.54,.01-2.67,.05-4.84,.28-5.72,.58-.42-.12-.65-.25-.65-.4,0-.12,.15-.23,.43-.33,1.04-.4,3.87-.68,7.19-.68s6.18,.28,7.21,.68c.27,.1,.42,.21,.42,.33Z"/>
  <path class="cls-1" d="M19.7,9.01h-.41c.27,.1,.42,.21,.42,.33,0,.19-.38,.36-1.03,.5,.13-.04,.25-.07,.36-.1-.76-.26-2.53-.47-4.74-.55-.31-.01-.64-.02-.97-.03-.18,0-.36-.01-.54-.01-.23-.01-.47-.01-.71-.01s-.48,0-.71,.01c-.18,0-.36,.01-.54,.01-2.67,.05-4.84,.28-5.72,.58-.42-.12-.65-.25-.65-.4,0-.12,.15-.23,.43-.33h-.5c-.74,0-1.34,.65-1.34,1.46,0,.52,.25,.98,.64,1.24h.01s.06,.04,.08,.06c.09,.05,.21,.1,.34,.14,.51,.2,1.28,.36,2.25,.5,1.51,.2,3.5,.33,5.68,.33s4.17-.13,5.68-.33c1.02-.14,1.82-.32,2.32-.52,.1-.04,.19-.08,.26-.12,.03-.02,.05-.03,.08-.05,0,0,.01-.01,.02-.01,.38-.27,.63-.72,.63-1.24,0-.81-.6-1.46-1.34-1.46Zm-7.62,2.14c-.14,0-.27,0-.41-.01h.83c-.14,.01-.28,.01-.42,.01Z"/>
  <path class="cls-1" d="M11.01,.56h0s0,0,0,0Z"/>
  <path class="cls-1" d="M21.48,7.94v.05h-.01s0,.03-.01,.03v.02l-.06,.19h-.01c-.03,.07-.13,.12-.3,.14-.62,.06-2.1-.22-4.01-.78-.96-.28-2.03-.63-3.14-1.03-.04-.01-.07-.03-.1-.04-.04-.01-.07-.02-.1-.03-.8-.29-1.57-.59-2.28-.88-2.23-.91-3.89-1.78-4.39-2.29-.12-.12-.17-.23-.14-.3l.06-.19h0s0-.03,.01-.04c0-.02,.01-.04,.03-.05,.03-.04,.08-.11,.19-.19,.1-.08,1.22-.93,3.82-.79,.03-.01,.06,0,.1,0,.28,.01,.59,.04,.91,.09,.11,0,.24,.03,.36,.05,.02,0,.04,.01,.07,.01,.17,.03,.36,.06,.54,.1,.25,.05,.5,.11,.77,.18,.02,.01,.04,.01,.06,.01t0,.01c.03,.14,.08,.28,.15,.41l.71,.26,.53,.18,1.05,.38c.13-.05,.26-.12,.37-.21,.23,.1,.44,.21,.65,.33,.1,.05,.2,.1,.29,.16,.03,.02,.07,.04,.1,.06,.11,.06,.22,.13,.33,.19,.16,.1,.32,.2,.47,.3,.18,.12,.34,.24,.5,.35,2.09,1.55,2.41,2.92,2.44,3.05,.02,.13,.02,.22,.02,.27Z"/>
  <path class="cls-1" d="M13.86,2.2s-.04,0-.06-.01c-.27-.07-.52-.13-.77-.18,.25,.04,.5,.1,.77,.17,.02,.01,.04,.01,.06,.02Z"/>
  <path class="cls-1" d="M16.68,3.23c-.11,.09-.24,.16-.37,.21l-1.05-.38-.53-.18-.71-.26c-.07-.13-.12-.27-.15-.41t0-.01c.16,.04,.31,.08,.47,.13,.17,.06,.34,.11,.53,.17,.09,.03,.19,.06,.28,.09,.03,.01,.06,.02,.1,.03,.03,.02,.06,.03,.1,.04,.42,.15,.83,.34,1.22,.51t.06,.03h.01s.03,.02,.05,.03Z"/>
  <path class="cls-1" d="M11.15,1.76s-.07-.01-.1,0h0s.06-.01,.1,0Z"/>
  <path class="cls-1" d="M16.68,3.23c-.11,.09-.24,.16-.37,.21l-1.05-.38-.53-.18-.71-.26c-.07-.13-.12-.27-.15-.41,.16,.04,.31,.08,.46,.12,.17,.06,.34,.11,.53,.17,.09,.03,.19,.06,.28,.09,.03,.01,.06,.02,.1,.04,.03,.01,.06,.02,.1,.03,.42,.15,.83,.34,1.22,.51t.06,.03h.01s.03,.02,.05,.03Z"/>
  <path class="cls-2" d="M17.3,2.4c-.13,.35-.34,.63-.62,.83-.11,.09-.24,.16-.37,.21l-1.05-.38-.53-.18-.71-.26c-.07-.13-.12-.27-.15-.41t0-.01c-.07-.33-.05-.67,.07-1.01,.33-.94,1.36-1.42,2.29-1.08,.93,.33,1.42,1.36,1.08,2.29Z"/>
</svg>