<?xml version="1.0" encoding="UTF-8"?> <svg xmlns="http://www.w3.org/2000/svg" width="96" height="96" viewBox="0 0 96 96" fill="none"><path d="M48 86C68.9868 86 86 68.9868 86 48C86 27.0132 68.9868 10 48 10C27.0132 10 10 27.0132 10 48C10 68.9868 27.0132 86 48 86Z" fill="#0B82E3"></path><path d="M70.8353 71.4524L68.6311 69.1601C74.3619 63.6056 77.536 56.1995 77.536 48.2645C77.7123 31.9536 64.5754 18.6404 48.2645 18.464C40.4176 18.3759 32.9234 21.3736 27.2807 26.9281C21.6381 32.4826 18.464 39.8886 18.464 47.7355C18.3759 55.6705 21.4617 63.1647 27.0162 68.8074L24.8121 71.0116C18.5522 64.7517 15.2019 56.464 15.29 47.6473C15.3782 38.9188 18.8167 30.7193 25.0766 24.6357C31.3364 18.5522 39.536 15.2019 48.2645 15.29C66.3387 15.4664 80.7981 30.2784 80.71 48.2645C80.6218 57.0812 77.0951 65.2807 70.8353 71.4524Z" fill="#015CBE"></path><path d="M57.8746 77.2715L37.5962 77.0951C36.45 77.0951 35.5684 76.1253 35.5684 74.9791V70.3063C35.5684 69.1601 36.5382 68.2784 37.6844 68.2784L57.9628 68.4548C59.109 68.4548 59.9906 69.4246 59.9906 70.5708V75.2436C59.9025 76.3898 59.0208 77.2715 57.8746 77.2715Z" fill="#87CAFA"></path><path d="M48 55.3179C52.0415 55.3179 55.3179 52.0415 55.3179 48C55.3179 43.9584 52.0415 40.6821 48 40.6821C43.9584 40.6821 40.6821 43.9584 40.6821 48C40.6821 52.0415 43.9584 55.3179 48 55.3179Z" fill="#0C227B"></path><path d="M63.4709 35.223L60.9387 32.6434L46.531 46.7867L49.0632 49.3663L63.4709 35.223Z" fill="#0C227B"></path><path d="M49.8823 17.1568L46.7083 17.1274L46.6495 23.4755L49.8235 23.5049L49.8823 17.1568Z" fill="#015CBE"></path><path d="M71.154 27.4979L68.9341 25.2291L64.3965 29.6689L66.6164 31.9377L71.154 27.4979Z" fill="#015CBE"></path><path d="M78.8267 49.959L78.8662 46.7853L72.5188 46.7063L72.4793 49.88L78.8267 49.959Z" fill="#015CBE"></path><path d="M27.4203 24.9047L25.1594 27.1326L29.6151 31.6543L31.876 29.4264L27.4203 24.9047Z" fill="#015CBE"></path><path d="M17.1709 46.1572L17.1475 49.3312L23.4955 49.3781L23.519 46.2041L17.1709 46.1572Z" fill="#015CBE"></path></svg> 