<svg xmlns="http://www.w3.org/2000/svg" xmlns:xlink="http://www.w3.org/1999/xlink" width="429.73" height="200" viewBox="0 0 429.73 200">
  <defs>
    <linearGradient id="linear-gradient" x1="0.5" y1="1" x2="0.5" gradientUnits="objectBoundingBox">
      <stop offset="0" stop-color="#f5ab16"/>
      <stop offset="1" stop-color="#f5ea29"/>
    </linearGradient>
    <clipPath id="clip-Мир_LOGO">
      <rect width="429.73" height="200"/>
    </clipPath>
  </defs>
  <g id="Мир_LOGO" clip-path="url(#clip-Мир_LOGO)">
    <path id="Path_101846" data-name="Path 101846" d="M299.486,0V153.111H267.843V51.418L206.562,153.111H175.025V25.905H138.68L92.789,153.111H71.211L30.155,39.117,33.3,111.259v41.852H1.88V0H42.935L82.11,111.048,121.074,0h85.488V101.895L267.843,0Z" transform="translate(-0.066)" fill="#fff"/>
    <path id="Path_101847" data-name="Path 101847" d="M357.228,99.17v53.951H325.69V0h59.717q17.242,0,30.338,6.313a46.505,46.505,0,0,1,20.139,17.932,50.043,50.043,0,0,1,7.042,26.443q0,22.509-15.4,35.491T384.889,99.17H357.237Zm0-25.55h28.179q12.507,0,19.084-5.891T411.063,50.9c0-7.292-2.207-13.567-6.62-18.191s-10.516-7.014-18.3-7.148H357.228Z" transform="translate(-13.193)" fill="#fff"/>
    <path id="Path_101848" data-name="Path 101848" d="M29.829,189.538A21.572,21.572,0,0,1,28,198.7a13.829,13.829,0,0,1-5.229,6.073,14.434,14.434,0,0,1-7.81,2.14A14.366,14.366,0,0,1,7.186,204.8a14.1,14.1,0,0,1-5.3-6.035,21.025,21.025,0,0,1-1.9-9.029v-1.746a21.523,21.523,0,0,1,1.861-9.2,14,14,0,0,1,5.267-6.1,14.375,14.375,0,0,1,7.781-2.13,14.352,14.352,0,0,1,7.781,2.13,13.94,13.94,0,0,1,5.267,6.1,21.451,21.451,0,0,1,1.861,9.172v1.583Zm-7.311-1.6q0-5.57-1.976-8.453A6.409,6.409,0,0,0,14.91,176.6a6.393,6.393,0,0,0-5.6,2.85c-1.314,1.909-1.976,4.692-2,8.376v1.727c0,3.608.662,6.419,1.976,8.4a6.409,6.409,0,0,0,5.68,2.994,6.286,6.286,0,0,0,5.584-2.878c1.3-1.919,1.957-4.721,1.976-8.4v-1.727Z" transform="translate(0.01 -6.914)" fill="#fff"/>
    <path id="Path_101849" data-name="Path 101849" d="M59.44,191.986H45.585v14.459H38.37V171.06H61.176v5.9H45.585v9.134H59.44v5.882Z" transform="translate(-1.545 -6.935)" fill="#fff"/>
    <path id="Path_101850" data-name="Path 101850" d="M89.37,191.986H75.515v14.459H68.3V171.06H91.106v5.9H75.515v9.134H89.37v5.882Z" transform="translate(-2.76 -6.935)" fill="#fff"/>
    <path id="Path_101851" data-name="Path 101851" d="M105.925,206.445H98.71V171.06h7.215Z" transform="translate(-3.992 -6.935)" fill="#fff"/>
    <path id="Path_101852" data-name="Path 101852" d="M142.464,194.633a12.535,12.535,0,0,1-4.174,8.99q-3.771,3.281-9.921,3.281-6.735,0-10.592-4.586t-3.857-12.579V187.58a21.326,21.326,0,0,1,1.785-8.99,13.435,13.435,0,0,1,5.085-5.968,14.177,14.177,0,0,1,7.685-2.072q6.059,0,9.767,3.281a13.523,13.523,0,0,1,4.279,9.211h-7.215a7.4,7.4,0,0,0-1.89-4.97,6.964,6.964,0,0,0-4.941-1.545,6.124,6.124,0,0,0-5.4,2.61c-1.19,1.746-1.8,4.442-1.842,8.107v2.677c0,3.819.576,6.62,1.717,8.386a5.991,5.991,0,0,0,5.421,2.648,5.993,5.993,0,0,0,6.879-6.323Z" transform="translate(-4.609 -6.914)" fill="#fff"/>
    <path id="Path_101853" data-name="Path 101853" d="M158.105,206.445H150.89V171.06h7.215Z" transform="translate(-6.107 -6.935)" fill="#fff"/>
    <path id="Path_101854" data-name="Path 101854" d="M186.839,199.153H174.184l-2.408,7.292H164.1l13.039-35.385h6.687l13.106,35.385h-7.676l-2.427-7.292Zm-10.708-5.9h8.76l-4.4-13.241-4.356,13.241Z" transform="translate(-6.643 -6.935)" fill="#fff"/>
    <path id="Path_101855" data-name="Path 101855" d="M210.765,200.582h15.323v5.853H203.55V171.05h7.215v29.523Z" transform="translate(-8.242 -6.934)" fill="#fff"/>
    <path id="Path_101856" data-name="Path 101856" d="M264.04,197.137a3.765,3.765,0,0,0-1.439-3.176,18.686,18.686,0,0,0-5.2-2.331,36,36,0,0,1-5.939-2.418q-5.973-3.253-5.968-8.769a8.613,8.613,0,0,1,1.6-5.114,10.475,10.475,0,0,1,4.6-3.512,17.117,17.117,0,0,1,6.726-1.266,15.718,15.718,0,0,1,6.687,1.372,10.648,10.648,0,0,1,4.557,3.876,10.2,10.2,0,0,1,1.621,5.69h-7.215a4.81,4.81,0,0,0-1.516-3.78,6.167,6.167,0,0,0-4.26-1.343,6.453,6.453,0,0,0-4.116,1.132,3.581,3.581,0,0,0-1.468,2.974,3.42,3.42,0,0,0,1.717,2.888,19.221,19.221,0,0,0,5.066,2.188q6.16,1.871,8.971,4.644a9.311,9.311,0,0,1,2.811,6.9,8.534,8.534,0,0,1-3.444,7.206q-3.44,2.619-9.259,2.61a17.67,17.67,0,0,1-7.359-1.5,11.7,11.7,0,0,1-5.066-4.1,10.583,10.583,0,0,1-1.746-6.025h7.244q0,5.858,6.927,5.853a6.739,6.739,0,0,0,4.02-1.055,3.427,3.427,0,0,0,1.439-2.955Z" transform="translate(-9.898 -6.914)" fill="#fff"/>
    <path id="Path_101857" data-name="Path 101857" d="M286.535,193.982v12.463H279.32V171.06h13.663a15.7,15.7,0,0,1,6.937,1.458,10.636,10.636,0,0,1,4.605,4.145,11.655,11.655,0,0,1,1.612,6.112,10.214,10.214,0,0,1-3.521,8.2q-3.526,3.008-9.758,3h-6.323Zm0-5.9h6.448a6.266,6.266,0,0,0,4.366-1.362,5,5,0,0,0,1.506-3.886,5.963,5.963,0,0,0-1.516-4.2,5.63,5.63,0,0,0-4.183-1.65h-6.62v11.1Z" transform="translate(-11.313 -6.935)" fill="#fff"/>
    <path id="Path_101858" data-name="Path 101858" d="M342.969,189.538a21.572,21.572,0,0,1-1.833,9.163,13.829,13.829,0,0,1-5.229,6.073,15.343,15.343,0,0,1-15.582.029,14.1,14.1,0,0,1-5.3-6.035,21.026,21.026,0,0,1-1.9-9.029v-1.746a21.523,21.523,0,0,1,1.861-9.2,14,14,0,0,1,5.267-6.1,15.278,15.278,0,0,1,15.562,0,13.94,13.94,0,0,1,5.267,6.1,21.451,21.451,0,0,1,1.861,9.172v1.583Zm-7.311-1.6q0-5.57-1.977-8.453a6.935,6.935,0,0,0-11.235-.038c-1.314,1.909-1.977,4.692-2,8.376v1.727c0,3.608.662,6.419,1.977,8.4a6.409,6.409,0,0,0,5.68,2.994,6.286,6.286,0,0,0,5.584-2.878c1.3-1.919,1.957-4.721,1.977-8.4v-1.727Z" transform="translate(-12.684 -6.914)" fill="#fff"/>
    <path id="Path_101859" data-name="Path 101859" d="M364.462,193.492h-5.747v12.953H351.5V171.06h13.01q6.2,0,9.575,2.792a9.692,9.692,0,0,1,3.368,7.9,10.933,10.933,0,0,1-1.554,6.035,10.643,10.643,0,0,1-4.7,3.857l7.58,14.459v.336h-7.743l-6.563-12.953Zm-5.747-5.9h5.824a5.938,5.938,0,0,0,4.212-1.4,5,5,0,0,0,1.487-3.847,5.414,5.414,0,0,0-1.41-3.934,5.8,5.8,0,0,0-4.318-1.43h-5.8V187.6Z" transform="translate(-14.24 -6.935)" fill="#fff"/>
    <path id="Path_101860" data-name="Path 101860" d="M412.355,176.971H401.628v29.475h-7.215V176.971H383.83v-5.9h28.534v5.9Z" transform="translate(-15.551 -6.935)" fill="#fff"/>
    <path id="Path_101861" data-name="Path 101861" d="M437.75,197.137a3.765,3.765,0,0,0-1.439-3.176,18.686,18.686,0,0,0-5.2-2.331,36,36,0,0,1-5.939-2.418q-5.973-3.253-5.968-8.769a8.613,8.613,0,0,1,1.6-5.114,10.475,10.475,0,0,1,4.6-3.512,17.117,17.117,0,0,1,6.726-1.266,15.718,15.718,0,0,1,6.687,1.372,10.648,10.648,0,0,1,4.557,3.876,10.2,10.2,0,0,1,1.621,5.69h-7.215a4.81,4.81,0,0,0-1.516-3.78,6.167,6.167,0,0,0-4.26-1.343,6.454,6.454,0,0,0-4.116,1.132,3.581,3.581,0,0,0-1.468,2.974,3.42,3.42,0,0,0,1.717,2.888,19.222,19.222,0,0,0,5.066,2.188q6.16,1.871,8.971,4.644a9.31,9.31,0,0,1,2.811,6.9,8.534,8.534,0,0,1-3.444,7.206q-3.44,2.619-9.259,2.61a17.67,17.67,0,0,1-7.359-1.5,11.7,11.7,0,0,1-5.066-4.1,10.583,10.583,0,0,1-1.746-6.025h7.244q0,5.858,6.927,5.853a6.739,6.739,0,0,0,4.02-1.055,3.427,3.427,0,0,0,1.439-2.955Z" transform="translate(-16.939 -6.914)" fill="#fff"/>
    <rect id="Rectangle_101590" data-name="Rectangle 101590" width="25.646" height="122.437" transform="translate(142.672 30.674)" fill="url(#linear-gradient)"/>
  </g>
</svg>
